/* XPM */
static char *_6583c0da5754a16d1d7faa4c42744d6xSQUSyyYodMQWng3[] = {
/* columns rows colors chars-per-pixel */
"64 64 161 2 ",
"   c #040403",
".  c #090604",
"X  c #060905",
"o  c #0A0A06",
"O  c #05050A",
"+  c #09060C",
"@  c #06090B",
"#  c #0B0B0B",
"$  c #110E0B",
"%  c #0D1106",
"&  c #0D110C",
"*  c #111305",
"=  c #13120D",
"-  c #19160E",
";  c #16190D",
":  c #191A0D",
">  c #070711",
",  c #0A0712",
"<  c #060A10",
"1  c #0C0D12",
"2  c #0D0E19",
"3  c #110E13",
"4  c #160E1C",
"5  c #0D1113",
"6  c #0E1119",
"7  c #131313",
"8  c #191613",
"9  c #161912",
"0  c #1C1B15",
"q  c #121219",
"w  c #1A151B",
"e  c #15191A",
"r  c #1D1D19",
"t  c #201F0D",
"y  c #211D14",
"u  c #221E1A",
"i  c #291E1A",
"p  c #1F210D",
"a  c #1F2014",
"s  c #1E211A",
"d  c #25250F",
"f  c #222215",
"g  c #292514",
"h  c #2A2916",
"j  c #24221C",
"k  c #29251C",
"l  c #22281E",
"z  c #2C2A1C",
"x  c #312D1D",
"c  c #32311F",
"v  c #0F1120",
"b  c #1E1E21",
"n  c #231F21",
"m  c #281F20",
"M  c #262621",
"N  c #2A2622",
"B  c #272822",
"V  c #282820",
"C  c #2C2922",
"Z  c #292927",
"A  c #2C2B24",
"S  c #2B262A",
"D  c #2B2728",
"F  c #2F2B2A",
"G  c #2C2D28",
"H  c #2F2E29",
"J  c #2E2F2A",
"K  c #2E2D29",
"L  c #312F22",
"P  c #322D24",
"I  c #322D29",
"U  c #312E29",
"Y  c #312D2A",
"T  c #302F2B",
"R  c #322F2A",
"E  c #322E2A",
"W  c #2E3024",
"Q  c #2F312A",
"!  c #303024",
"~  c #303227",
"^  c #313127",
"/  c #333225",
"(  c #393525",
")  c #3A3927",
"_  c #303028",
"`  c #353229",
"'  c #36332C",
"]  c #35312E",
"[  c #34302F",
"{  c #34342C",
"}  c #36362C",
"|  c #35342F",
" . c #36362E",
".. c #37372F",
"X. c #34332C",
"o. c #39362D",
"O. c #3A362B",
"+. c #3B382F",
"@. c #39392F",
"#. c #3E3A2F",
"$. c #3D3A2C",
"%. c #333530",
"&. c #353631",
"*. c #373632",
"=. c #353531",
"-. c #393532",
";. c #3A3632",
":. c #373833",
">. c #373833",
",. c #3B3833",
"<. c #3D3A33",
"1. c #3A3935",
"2. c #393A34",
"3. c #3B3A36",
"4. c #393937",
"5. c #3C3B36",
"6. c #3E3B36",
"7. c #393C35",
"8. c #3F3C37",
"9. c #3C3A34",
"0. c #3F3E3A",
"q. c #3E3D39",
"w. c #413E2E",
"e. c #403D36",
"r. c #423E32",
"t. c #413D3A",
"y. c #423E3B",
"u. c #423E3A",
"i. c #3F413C",
"p. c #43402F",
"a. c #444234",
"s. c #494336",
"d. c #4C4B37",
"f. c #43403B",
"g. c #41403C",
"h. c #42413C",
"j. c #44423D",
"k. c #49453B",
"l. c #44483A",
"z. c #49493D",
"x. c #434341",
"c. c #474642",
"v. c #464541",
"b. c #484441",
"n. c #494641",
"m. c #494542",
"M. c #474840",
"N. c #4B4841",
"B. c #4C4B46",
"V. c #4F4C45",
"C. c #4E4F47",
"Z. c #4C4A44",
"A. c #4E4D49",
"S. c #4E4C48",
"D. c #514E47",
"F. c #514E48",
"G. c #515244",
"H. c #53524D",
"J. c #53514B",
"K. c #555450",
"L. c #5B5A55",
/* pixels */
"6 O 0 %.  1 < 5 X 7.% o 5 q # j r X 5 + # 5 Z # 5 @ # # u $ 5 1 3 < * a < 1 # 5 . M = X 5 2 + 0 l # 5 1 @ # =.X 5 1 q O Q 0 # 1 ",
"@   ..H.# + #   0 A.a o # ,   @.2.. # 5 o r u.$ O % + # L 0 O o o # i z 3 # o + $ e.: . 7 +   { {   # $ o j B.8   X + $ B.`   # ",
"r v.{ C t.F 8 3.h.0 @.' 0 u b.k M 2.r = I j 0 I j q j g w y j 9 8 N y - S M 0 l P 8 f J # r ;.h k e.j = 9.I y 8.@.= W <.k $.N.u ",
"x.8     8 =.A.j   X # y y.] o . o $ J h.8 $ =   8 ` 0 # = # # k j 3 o . 8 r P r   = # 8 f.Q # o   # ] k.0 = # X j J.9.& .   8 q.",
"#   7 7 # 7 1.  5 @ 3   1.8 # 1 1 X 8 k   O 1 & = s & # X 1 + 0 r   & & O & Q # 3 1 #   A e # 3 5   0 {   + + 5   4.# @ q 1 O 7 ",
"e # q <   8 ,.o 5 1 3 o Z 8   6 1 # 8 l 1 6 5 5 # b % o v e X r ; 1 7 5 > 1 z   5 < 7 # A 8 # < 6 X 9 ..O e 1 5 @ c.5 O 1 1 1 7 ",
"a   + 1   0 8.. @ 5 +   <.0   q q   f z . + 5 @ $ p = @ @ < , p a @ + # O 8 ~ # @ < +   ' j + , 5   f @.+ + 1 O   k.0   q 1 @ 8 ",
"l.{ 1 O B r.r.O.r O w ] $./ M > + j x k N w   9 k i d ; < 4 j h g B 1 o n z ) R r   r A O.$.A # > Z $.p.e.w + r a.k.r.A O 1 _ p.",
"O A p.s.F 8   e ;.$.W s   , C / / f # # 7 h z i 7   3 j k k u + > j z / N 3 + 8 Y o.$.0 @ > D r.s.S 5   b a.d.y.r   7 P s.s.V , ",
"3   a @.  + 7 X   <.% X 6 6   h j   + 5   8 j . @ 1 + o i -   q 6   : L # 3 q #   o.o   q 4   C c   5 & @ = s.. O 6 # . O.u   1 ",
"< # a { O q < e 8 Q % & < 2 7 8 r # 3 < # & 8 & 5 5 1 7 j 8 # < < # 0 l # < O 5 X :.9 X q 1   j A @ < & < 5 l.# 5 @ 5   X.s # 1 ",
"1 X 0 I   , @ @   %.X X < 7   j r   $ 3 # 7 j o @ < #   r = O 3 5   = j # 1 1 7   :.o & + q   Z M   7 X 5   <.  5 @ 1   G 0   1 ",
"o = 8.k.8 $ 3 $ P 3.Q o & # = I F = o . $ w M s 5 o o 8 R Y 8   o & ;.u.8 o o o V b.R $ $   0 j.J.r   . 3 1.J.-.# o . 8 A.h.= # ",
"^ 8.r o 3.] u R u o j P 0 A N = 8 j y y V u = 0 C 0 k k $ 8 J A j { 0 o 2.] j 9.A $ k u.C ,.j.8 = q.<.L x.F . N 8.z ' 9.$ w 2.j ",
"C   o + o r h.$ # 7 #   =.j . + + o 8 k . + # X = W 0 o # 1 X z {   # $   8 k.7   $ #   D.A   + #   ^ G.O , $ # 7 b.0   7 @ # A ",
"& 5 1 1 + & G o # 3 + 5 j = 1 1 1 $ = r # 3 1 & @ B % X 1 6   l s o 1 + = & %.X 5 # 7   R r   7 7 @ ; { @ 1 & 1   { 8 X 1 < 7 X ",
"& @ 1 < 5 = G O 5 @ 1 + C = # , 5 @ = s # 1 , = # j = o 5 2 # s s X 1 1 # & =.  < @ q . G r 1 < 1 O 0 W , 3   q   X.7 X 1 6 5 & ",
"B & o # o 0 o.7 o 7   . I j . , # o y k $ + # o = <.;   7 #   ' { . # $ . r B.8 . 9 . . J.X.  # X + W z., < # o 8 v.y   7 +   j ",
"A ..0 $ R R u A r = u V 0 r u $ 7 j y 8 Y m 8 u C 0 j ` o 8 =.V l 9.0 o <.2.z 9.X.$ C b.V 3.B.8 7 0.$.f m.N - J =.y _ O.7 8 =.C ",
"  # X.3.8 o . o u R y o o $ $ P V = o   $ u R u . = . 8 b.=.$ . # = ;.D.0 o   . j L.] =     8 c.Z.r   . 1 A k.s # . o = j.X.o X ",
"7 @ 8 u + 3 # 5 # u = = , 3 @ ; 9   7 5 + = J   5 # #   Z = + 7 7   & {   q , 5   q.o X 5 1   A V   7 o 5   7.# 5 1 3   M r @ 9 ",
"5   0 V   , 1 5 o r &   5 2 # 0 0 # 5 2 + o Z o 6 @ 5 @ J 9 5 > 2 # a :.  q 1 5 # 7.; 5 > 2 O s J @ O 7 < 7 ~ # 5 @ # . M 8 @ O ",
"6 o 0 h $ + 1 @ o k : o 2 1 # y 0   + 7 # = ' . @ 1 3 . ` 0   2 <   f '   , 5 @   d.0   4 q   A /   < # @ 7 $.o @ 5 # . P 0   q ",
"+ j x x j 3 @ 9 k g f = , 1 y x z C #   j z $.P w   w A w.$.V + , P w.a.3.4 O s a.a.i.B   3 I $.) =.3   M _ ( { r   8 N L z M + ",
"C B # + 8 g z g 7 + 8 u x g r + @ j z L k 4   9 R $.( 0 + , I p.r.A # + j a.a.k.e O 7 ;.s.r.G @ + u ) w.Y q O e P o.z 0 1 1 r z ",
"; X @ 5 # = j o @ 5 @ . j 9 + 1 2   - L + 1 e @   2.*   q q   / z   q <   8 k.  @ 7 + . o.j   1 q   y O.. 1 5 X . A 9 X 2 @   : ",
"& 5 2 < & & 8 = @ q 3 + B 7 O 2 2 # 0 z # 1 @ 5 o %.9   q < @ l B X @ 6 & & i.X 5 < 1   =.r # 2 < # = _ O 4 @ 5 + B = @ < 2 7 & ",
"&   7 5 # 7 s o 5 + #   j 9 # @ #   8 r + 1 1 5 X ..X @ 1 q   Z J   7 # 5   i.X # @ 7   J 8   5 7 # = Z   1 1 # o A = & 5 5 # o ",
"M = #   $ 0 k 0 # # = 8 o.V = . X = 7.f.8 o o o B N.R = .   8 N.N.8   . & 4.H.M #   $ 8 N.3.8 .   = { v.8 # = o j R 0 = . . 8 j ",
"8 j y 0 N u = 0 C : j k $ 8 X.M j _ 8 o o.' j 2.A # j j.N ,.v.8 r u.e.C a.D $ R q.l O.<.. 0 <.j k >.8 o { C 8 P r = u A u y j 7 ",
"1 # 0 j . + o # $ W 0 . 7 @   W {   # 5 o 8 k.8   & # . F.J     #   ^ F.o # + # 9 l.:   3 3 X ' ' X # # . = 9.8 o # o o V u o $ ",
"5 + = a + 7 + 5 # C %   q q O l s X < # 5 = %.  5 # q   =.8 O q 1 @ 0 J # 1 5 #   :.= # 3 1 X s s @ 5 + 5 # j o 5 O q . r 9 # 1 ",
"2 # = ; 1 q @ # X k % # < 1 # u s X 1 7 # & =.. # 3 1 # Q r + 1 6   0 { @ q < # X { & o 1 1 # 0 l X 7 1 . $ Z # 1 < 5 # s = @ 1 ",
"+ # f z $   # # = i.= . 1 1   O.Q o # #   0 B.8 o #   $ A._   +   X P N.. # # o 7 k.0 X 7 # . O.A   # # o r _ = o # . . C 0 o # ",
"= j g y x 0 - u A : C P = 7 ;.V j 2.u o 3.<.V 3.] $ Y 3.A 3.j.0 r k.2.j b.u $ A 9.j ` ` # 8 R u j I 0 $ V j 8 A 0 = a j 0 i u - ",
"l = .   7 y O.u . =   0 j.o.$ . o = <.Z.8 $ X # k H.{ =   . 8 Z.v.8     8 X.B.M o . o 9 j.,.7 . o = C ` 0 = & # 0 k ; o . o = j ",
"# @ 1 # & 7 G   1 @ 7   X.# # 7 7   = Q   1 + & # i.X @ 6 5   A C   7 # 1   :.  5 @ 5   j 8 O 1 # # = 0 # @ @ 5 X s & # 7 1 O & ",
"# 6 e < 1 & B < q @ 5 @ J 8 # < 5 1 s :.  4 1 5   j.% & > 1 O B M # < 5 @ 8 ..@ 6 @ 5 # Z 0 , 1 6 X = j 1 q q @ 1 r # 1 1 2 1 & ",
"9   < 1 o 8 R . O < 5   o.0 . 1 <   f '   1 q X . l.p   1 2 . P W   7 1   = 7.X @ q , . A -   1 2 @ : f o + 1 @ . j * # 4 @   : ",
"z 0 1 + 0 x O.P e   9 ] ` $.N + + P p.a.9.4   r k.p.i.s O 3 A w.#.A 1   j ^ $./ q   8 k O.z V + O r h z i 4 + 8 g z d 8 < < C z ",
"< k z x C 8   r / $./ j O 1 ] $.#._ # O M l.k.r.s   7 t.s.r.A , + Z ) ( P b   w P ` z r , , V z z r 1 X 8 y i i 9 + 7 j x x u # ",
"q   a z o # q   . 7.% . 1 ,   ^ W   1 5   0 a.o @ 6 < . ] y   > 5 X f ' . , 1 O . ` = # 2 ,   y p O # & 2 - d $ @ + @ X j - . 3 ",
"> X 0 j @ 1 < 5 o Q =   q 1 @ J j   2 @ & 7 h.. 5 < 3   1.r 1 1 < @ = A # q @ 5 X A % # < q + 0 9 & 5 @ # # r $ 5 5 5 X A r   1 ",
"q X 0 j . 1 1 5 & :.X # # e   M A X 5 # @ # i.  5 @ 7   X.7   7 5 # 9 A   + 1 5   Q = # 7 7   0 9 O 7 o 1 7 f + 1 @ 5   u 8 # 5 ",
"o o _ u.7 + o o j j.J $ o   8 B.Z.=   . 8 ] K.M @   o 0 B.;.= o o & _ j.0 $ =   j J u $ . . 3 N z 8 o   3 w P m = o & = 3.[ 3 . ",
"C { 8 $ ;.R u -.J - M j.j 9.u.8 8 b.o.P q.Z = _ q.z +.$.. u 2.j j 2.0 o I j 8 J u = j C y u k = 3 0 y 0 N u 8 8 V : A B $ 8 -.k ",
"M   # 7   r b.8   # # o Z.J # + + . O.Z.o # 7   8 B.0   3 3 # { ..  o $   8 h.= # # X $ k u o o # , f h , , * # 3 ] a o 3 + o j ",
"& # 5 1 # = =.  5 # , # X.8 @ 1 5   0 J + 6 < & o { & o 3 <   j a # 1 1 # = Z X & # @ # u 8 O 1 1 # = s # < # 3 o Z & # , < 1 = ",
"X 5 & @ # ; %.  1 5 7   &.9 @ 4 5   s Q X 7 , 8   Q & & 1 1 # f l X 5 1 @ # G o 5 1 3 + r = 3 , 5 @ = j , 3 # 1 # Z = o 5 < & & ",
"B X @ #   8 c.=   $ o . F.%.  O @   W k.. 1 o   7 l.;   3 , . ` A   # $ o 8 X.$ o # . . M 0 $ # o + a x 3 + . o $ <.0 . 7 O   z ",
"C { 0 $ 8.;.A u.I o V j.A e.3.8 9 f.<.j j.u $ P 7.j ` o.$ 8 ;.j B _ = o A k 8 C 0 = y N y u j = $ D 0 g Y S = r P y ^ ` o w 7.A ",
"X = <.Z.8 . o X ] J.3.= $   r Z.j.8   X 7 R N.D o . o = y.;.=     = A ;.8 o # & r l 8 $ . . 8 A P 8 o   3 j / Z # # o - j.9.= o ",
"7   0 _   7 5 5 X i.  X @ 5   Z Z   7 @ 5 # =.  7 @ 9   N 7 # 1 1 # & 0 $ 1 < # # s = # 3 q   8 0   7 # 1 = A # + # $   F r X 5 ",
"2 # 0 Q O q O < X M.% & 2 2 @ C B   < 5 @ 8 { o 5   7   Z 8 1 1 1   9 k # 1 7 1 $ 8 & # 1 q 1 0 a < q   1 o z # e < 3 + J r 1 < ",
"6   y $.  3 q O . z.* X < q   ^ A   e 5   & 2.. @ q 5 . P 8   5 q . ; 0 + , 1 @ . j ; X 7 <   f f O + # 1 7 ( # X 5 +   P u   6 ",
"< V a.s.Y 4   r k.z.l.r + 3 N s.r.V ,   j @.o.I q @ 3 N P L j O + 0 x h u 7 O 8 g z g = , , u c c N $ + r V $.` e O 3 R r.r.V O ",
"a.X.1   I r.z.r.r O 8 q.r.r.P + 1 M $.$.C w @ w ^ ' z 0 , , V h C : 1 2 : y m g e X q j z z u , @ j c ( I q , 9 +.` @.C   4 I k.",
"; O 1 5   0 b.  @ < O o <.j   1 6   0 (   1 5 X . W ; X 7 ,   a f @ # X < = d $ & @ + # k 0 + 1 6   f ^ + + q @ . @.9 X 5 <   0 ",
"& 1 @ 1 # 7 x.o 6 < e @ =.8 O 2 < & ; Q + 4 @ 5 o B & X 6 2 1 0 9 X 6 # # # 0 o < 6 3 . D 8 O 5 2 O ; j $ q @ 5 . 9.& @ 1 1 5 = ",
"& @ 1 7 X # 9.  & @ @   =.r   , 5 @ = C   1 1 #   Q =   q 7   8 9 1 5 X 7 7 f 3 5 # O   j 8 # 5 5 @ 0 A + , @ 8 X { = @ 5 5 X # ",
"7.8     8 1.H.k   o = 0 b.-.$ o   = { k.8 . $ o s _ j #   . 7 N M o o # = r Y 8 o # # 8 t.A = .   # ^ u.8 7 .   j v.%.8     8 f.",
"M v.2.k u.I - ] u.j P o.= u t.k k 2.8 . =.V 8 A s = j P y u k $ e d y 4 g 0 4 f A 0 h V 8 r ` j z 3.j = { P j 3.2.$ I u.k o.v.u ",
"#   ` D.# . #   0 Z.a o 5 +   { { . o 7 . 8 9.7 # # . o V r # # # + f / , @ = o = { 0 o 3 + # ^ {   o # o s C.8   X   o D.@.. # ",
"2 @ s _   5 5 &   { & o 1 1 # j 0 # , < & = M   7 < 3 o l = + 1 1 < = f , 1 @ # X B = o 3 < # s r o 7 + 5 # &.  & 5 1   { 8 # 1 "
};
