/* XPM */
static char *_469766135144ac0e860bdf1776691f3VOGg2rJSzk1Yqn4U[] = {
/* columns rows colors chars-per-pixel */
"64 64 210 2 ",
"   c None",
".  c #030304",
"X  c #070709",
"o  c #08070A",
"O  c #070809",
"+  c #0B0B0C",
"@  c #090606",
"#  c #0F100F",
"$  c #16100E",
"%  c #1A120E",
"&  c #0E0D11",
"*  c #100F13",
"=  c #0F1011",
"-  c #121215",
";  c #1A1514",
":  c #1B1917",
">  c #15141A",
",  c #18171D",
"<  c #17181B",
"1  c #1B1A1D",
"2  c #231711",
"3  c #221D1C",
"4  c #2B1E17",
"5  c #301F14",
"6  c #21201E",
"7  c #2E2019",
"8  c #3B251B",
"9  c #372619",
"0  c #1C1B22",
"q  c #201F26",
"w  c #211F28",
"e  c #1F2023",
"r  c #222225",
"t  c #2A2423",
"y  c #2C2926",
"u  c #242529",
"i  c #25262A",
"p  c #26272B",
"a  c #262629",
"s  c #24232B",
"d  c #28272E",
"f  c #27282C",
"g  c #27282B",
"h  c #292A2E",
"j  c #2B2A2B",
"k  c #332A25",
"l  c #332E2C",
"z  c #3B2F29",
"x  c #382824",
"c  c #3B332E",
"v  c #3B332A",
"b  c #282730",
"n  c #252834",
"m  c #2B2C30",
"M  c #2D2D31",
"N  c #2A2932",
"B  c #2A2937",
"V  c #312E3A",
"C  c #302D35",
"Z  c #2F3134",
"A  c #313136",
"S  c #343333",
"D  c #393334",
"F  c #3C3934",
"G  c #353539",
"H  c #34343C",
"J  c #39373C",
"K  c #3A393B",
"L  c #422D1D",
"P  c #412D23",
"I  c #453125",
"U  c #4B3324",
"Y  c #433529",
"T  c #4A362A",
"R  c #4D3B2D",
"E  c #43382E",
"W  c #533729",
"Q  c #543B2C",
"!  c #563927",
"~  c #4D3C32",
"^  c #443738",
"/  c #533D32",
"(  c #593E33",
")  c #494538",
"_  c #564234",
"`  c #5A4335",
"'  c #5C4539",
"]  c #5E4A3B",
"[  c #57483A",
"{  c #5E5A3D",
"}  c #5A563F",
"|  c #624434",
" . c #624739",
".. c #644B3C",
"X. c #6A4B3D",
"o. c #674835",
"O. c #704E38",
"+. c #6C503F",
"@. c #63563F",
"#. c #74523C",
"$. c #393343",
"%. c #3C3C43",
"&. c #423942",
"*. c #4C4443",
"=. c #4C4B44",
"-. c #464448",
";. c #544B44",
":. c #594E4B",
">. c #5E5747",
",. c #4E4D54",
"<. c #565456",
"1. c #644F43",
"2. c #694D47",
"3. c #6C5343",
"4. c #64544D",
"5. c #665847",
"6. c #725645",
"7. c #735D4C",
"8. c #7C5C4A",
"9. c #785945",
"0. c #7E604E",
"q. c #7D6353",
"w. c #766252",
"e. c #5E5D61",
"r. c #635E60",
"t. c #646265",
"y. c #67676B",
"u. c #69686A",
"i. c #736260",
"p. c #787674",
"a. c #80564D",
"s. c #84634D",
"d. c #826147",
"f. c #97634E",
"g. c #856553",
"h. c #856955",
"j. c #8D6B55",
"k. c #8C6D59",
"l. c #876454",
"z. c #9C6B56",
"x. c #926D5A",
"c. c #946956",
"v. c #8B715C",
"b. c #967156",
"n. c #94725C",
"m. c #9C765D",
"M. c #9A785A",
"N. c #A16F5C",
"B. c #A5715B",
"V. c #8E7261",
"C. c #957562",
"Z. c #9B7662",
"A. c #9D7963",
"S. c #9C7769",
"D. c #A27363",
"F. c #A37C64",
"G. c #A27D6A",
"H. c #AB7D6A",
"J. c #A87B67",
"K. c #B47E67",
"L. c #988F7B",
"P. c #8B8373",
"I. c #A68166",
"U. c #A58169",
"Y. c #AB846C",
"T. c #AD886E",
"R. c #A88466",
"E. c #B2846D",
"W. c #AB8672",
"Q. c #AD8974",
"!. c #A98676",
"~. c #B58573",
"^. c #B38A73",
"/. c #BC8C75",
"(. c #B48C7A",
"). c #BA8D79",
"_. c #B88775",
"`. c #B6927C",
"'. c #BB937C",
"]. c #BF997E",
"[. c #B49075",
"{. c #C18F7C",
"}. c #C1947E",
"|. c #BB9583",
" X c #BE9A84",
".X c #BD9A8C",
"XX c #B2928F",
"oX c #A89D91",
"OX c #B5B3A4",
"+X c #C29682",
"@X c #C39A85",
"#X c #C59D8A",
"$X c #C89E8A",
"%X c #C99B86",
"&X c #C19E90",
"*X c #C6A18C",
"=X c #CBA38D",
"-X c #CFAA8F",
";X c #CBA386",
":X c #C5A593",
">X c #CCA592",
",X c #CDA892",
"<X c #C9AC9E",
"1X c #D0A793",
"2X c #D2A994",
"3X c #D4AE9B",
"4X c #D6B19E",
"5X c #CFB5AB",
"6X c #CEC7C1",
"7X c #D2CDC2",
/* pixels */
"                                                                                                                                ",
"                                                                                                                                ",
"                                    > < 1 , 1 0 , r q 1 1 1 a                                                                   ",
"                                  - - < 1 , r G j K 1 , < 0 r g s s                                                             ",
"                              + O # = < 1 e j D K -.g 1 1 6 e g r r f f h h m                                                   ",
"                          & & + . # = = 1 G D S c ) Z 0 0 e u u r a f h h h h A                                                 ",
"                        # $ + O O + # = - h K H Z K 6 1 e u g g f b f f f f m A K                                               ",
"                        O O O O # + + # : h Z Z i Z g u g g g i f f f a f m m H H                                               ",
"                        # O O O = # O # # # < i < e f f g u g f u r i b m M m H $.                                              ",
"                          - + O O # O # O # = 1 e u a f a r u u e i f m f i f H %.                                              ",
"                          - : $ O O O # # = < e 0 e e r r e r u u g i f f u r H -.                                              ",
"                          : 1 $ # O # $ - 1 1 1 e a a r e e 0 u u u u f b f a A                                                 ",
"                            1 - # # # - - > - 1 0 r 0 0 e u u g f u u f a m m H                                                 ",
"                            : $ $ + O O O + = < 1 < 6 r u u r r u u u a h m m G                                                 ",
"                            : - - + O + # # - : < < < 6 0 1 1 1 0 e e r u r m G                                                 ",
"                            : : $ + O O O = - < < < < < 1 1 1 0 0 e e 0 r g f H                                                 ",
"                            : - $ O @ O + + - - > 1 1 1 1 1 1 0 r 0 0 e S ;.S G                                                 ",
"                            : : - O O O + - - : > , 1 1 e e 1 q 0 0 r m >.5.:.                                                  ",
"                            : ; # + $ : t k v k z c D l y p p s j D ;.w.w.7.4.:.                                                ",
"                            : - - 6 z ` 3.3.9.9.j.S.C.h.h.q.q.h.V.G.Y.C.7.7.5.=.                                                ",
"                            3 k k E  .9.l.j.c.A.T.U.V.k.v.h.Z.W.(.`./.F.7.3.5.1.                                                ",
"                              R z v ] q.n.A.Z.Y.Q.n.h.0.C.|.`.'.@X].'.R.3.@.g.H.%XK.                                            ",
"                              R R [ [ @.h.Z.G.`.;XI.0.3.1.C.Q.@X-X=X}.Y.6.0.{.%X1XH.                                            ",
"                              1.] ] k 9 I +.G.-X-XM.O.0.w.!.@X:X3X2X}.'.s.j.}.{.{.z.                                            ",
"                              3..._ v 7 4 ( m.=X;XR.s.n.^.,X3X,X%X$X%X@XQ.D.).J._.B.                                            ",
"                              8.0.] T 9 P | c.+X}.}.E.R.`.*X:X$X=X>X%X$X&XW.+Xz.f.K.                                            ",
"                              @.@._ Y I ( | z.{.%X;X'.^.[.].#X,X3X3X=X>X:X[.).f.B.K.                                            ",
"                              1.` _ Y _ ( | z.~.+X%X/.^.~.).>X3X4X1X=X1X*X'.D.).{._.                                            ",
"                              6.` R T E ` o.N._./.).K.~._.+X2X4X2X1X-X:X#X.X X'./.                                              ",
"                              6.] _ T I ..a.H.+X}.}._.B.~.$X3X4X2X1X=X*X#X*X]./.                                                ",
"                              6.+.] ` U  .6.Z.(.#X_.+XD.D.%X3X3X2X-X=X;X*X:X|.                                                  ",
"                              6.6.+.X.` Q / 8.G.|.!._.|.R./.2X3X2X-X;X*X:X:X&X                                                  ",
"                                9.6..._ ~ / l.x.G.~.|.|.@X|.,X3X2X;X%X=X:X:X.X4.                                                ",
"                                9.6.' / (  .8.f.H._.|.#X|.@X,X4X1X*X*X*X:X:X(.^                                                 ",
"                                6.6. .`  . .2.a.x.S.H.~.J.Y.#X4X>X@X*X*X X].j.j V                                               ",
"                                  3.2.( T / X.l.S.K.$X$X%X'.+X,X$X X X`.[.E.( s N                                               ",
"                                    3.` ` X.9.k.S.Q.#X1X>X X|.#X].'.Q.^.].s.q d N B                                             ",
"                                     .' `  .8.n.D.H.}.&X:X#X#X|./.R.T.}.Z.x q N N N                                             ",
"                                      ` '  .2.8.x.J.(.|..X&X].E.I.I.).A.P 1 d N N N s 0                                         ",
"                                      I ' ' ' 6.j.x.!..X:X|.R.M.m.R.j.P ; s d N N s q 0 0 0                                     ",
"                                      O 4 ` ' 8.x.k.!.|.(.G.b.b.b.9.8 % q N N N s w 0 , 0 0 0 0 0                               ",
"                                    + O . 4 / 6.j.g.x.Z.n.j.b.d.o.9 % 1 w b d N s , > 0 , > > 0 0 0 0                           ",
"                        :           O . . + U Q | 3.9.s.b.s.#.! 9 % > q s f N d w - - * & & * * > > 0 0                         ",
"                      t 1 : : - - + @ . . @ P Q W ` 9.s.0.o.U 8 2 $ 0 r w s f N w * + & + o & * > 0 0 w 0 0                     ",
"                      y y r : @ O O O . . . 4 U W Q | | Q U L 5 $ > q s s s b b w > & o X . . X & 0 0 w w w s 0                 ",
"                    y 6 6 6 : + + O O + O . @ 2 9 U T U U U 8 ; $ , q w s s s b w > & & + & o . . & 0 s b s s s 0 q             ",
"                    6 6 6 : - + @ + + $ O . . . @ @ $ % % ; - $ > 0 q s s b s b r , , & & > > o X . & s b r w 0 0 q q           ",
"                    6 6 1 1 - # O $ * + & . . . . . . . . O & & + , q s d f s s s 0 > & 0 0 > & X + & > 0 0 0 0 q q s s         ",
"                    6 6 1 < O O + * & & & X . . . . . . o * & . . . & 0 s d w d 0 0 o > 0 0 * + + 0 0 & & & 0 w w n b s s B     ",
"                  c t 6 6 $ @ O + & & & + X . . . . . + 0 > X X . . . X 0 s w d w > > 0 0 > o o > s 0 - > & > 0 b s s s b b V   ",
"                  y y r 6 O . # - - & + o X . . . . - 0 * o o o . + X . . * w s w 0 0 0 > o o * w s 0 & > 0 0 0 b b b b s f B $.",
"                . ; k y : . . O + - & + + . . . X * 0 > & o o o - - & X . . & 0 0 0 0 0 & o + 0 b s 0 * & 0 0 , w s s b b b N V ",
"              . . O r 3 O . . . . X & + X . X o > 0 0 & o o o > 0 > & o + & o & 0 0 0 & & o , w b s 0 + & 0 n & 0 r b f b f B N ",
"            . . . . + - . . . . X + * & . X & 0 0 0 * + o o * , > & + & * > 3 3 0 0 > & & * 0 w b s > + & 0 w + > b b b b N N d ",
"          O . . . . & O . X O O X & > & & > 0 0 0 > & o o & > > & + > w B &.:.l 0 , & & * 0 w w b s > o * s > & s b b b N B N s ",
"        O O . . . . & . O & + O + > & & 0 > > > * & + + & * * * > 0 V :.r.:.&.l b > & * , q w b b r & X > w & 0 b b $.<.t.y.y.r.",
"      + o @ . . . O + o * & O + & > * 0 0 & 0 > - + + + * > * - r 0 l E &.$.N ^ B > & , 0 0 w b B 0 & X 0 r + e B <.t.=.K K ) -.",
"      o . . . . . * O + & + + & * & , 0 0 , 0 * & + + * > > O + r s &.&.$.J S 1 > * , 0 0 0 w b m 0 o o 0 0 & b e.,.S S { { { { ",
"    + . . . . . O * + * & + + & & & 0 0 0 > * & & o + > > & o 1 S b n n n K j * > , , 0 , 0 n b m 0 o & 0 0 > ,.,.F { { ) ) F ) ",
"    - . . . . . ; + & * + + & & & & 0 0 * > * & & o * 1 > & * D j M A g 1 3 t , , 0 0 0 , w n n f 0 X & w 0 0 y.) 5.) l m ) ) F ",
"    * o . . . * > O > & + & & & & > 0 > * * & X o o > :.y & > , + t K > + + > 1 , 0 0 , 0 w N N s > X - n > 0 t.=.v h F L.5X7XOX",
"  + + O . . . 3 k ~ > + & & & * o & & & & & X X & 0 N p.0 & * > > , q & , > , 0 0 0 > 0 0 w N b s 0 X > e - 0 %.e.r l oXoXw.u.<.",
"  O o @ O + E 7.h.[ o + & & * + o > & & & + . + 3 l l y.- > > 1 > - * 0 0 > 0 0 0 > 0 0 0 w N b s > X 0 e > h A u.e 4.<XoX*.S ) ",
"  . . . . v v.w.~ , + & & + & X + > & + + X X O y : r J > > > > > > > > 0 0 0 0 0 0 0 0 q w B n w > X 0 0 > m e e.S P.5X6X<.F p."
};
