/* XPM */
static char *_7db3116e44e467cf4cdef93880cd1aagsFpUpj9XKg5MTx1[] = {
/* columns rows colors chars-per-pixel */
"64 64 149 2 ",
"   c None",
".  c #050404",
"X  c #2C2220",
"o  c #312522",
"O  c #332826",
"+  c #362C2A",
"@  c #3A2E2B",
"#  c #3E312E",
"$  c #3C3230",
"%  c #40322F",
"&  c #433532",
"*  c #463835",
"=  c #4A3A36",
"-  c #473B38",
";  c #4F3E3A",
":  c #4E3E3A",
">  c #4D3D39",
",  c #4D3F3C",
"<  c #4D3D39",
"1  c #503E39",
"2  c #503E3A",
"3  c #503F3A",
"4  c #513F3A",
"5  c #503F3B",
"6  c #513F3B",
"7  c #523F3B",
"8  c #503F3A",
"9  c #4E403C",
"0  c #4E423F",
"q  c #4F403D",
"w  c #50403B",
"e  c #51403B",
"r  c #52403B",
"t  c #53403B",
"y  c #50403C",
"u  c #51403C",
"i  c #52403C",
"p  c #53403C",
"a  c #52413C",
"s  c #53413C",
"d  c #52413D",
"f  c #53413D",
"g  c #53423D",
"h  c #50433F",
"j  c #51433F",
"k  c #53423E",
"l  c #54413C",
"z  c #54413D",
"x  c #54423D",
"c  c #55423D",
"v  c #54423E",
"b  c #55423E",
"n  c #54433E",
"m  c #55433E",
"M  c #54433F",
"N  c #55433F",
"B  c #56433E",
"V  c #57433E",
"C  c #56433F",
"Z  c #55443F",
"A  c #56443F",
"S  c #57443F",
"D  c #54423D",
"F  c #58443F",
"G  c #58453F",
"H  c #59453F",
"J  c #58443F",
"K  c #4D4240",
"L  c #554440",
"P  c #564440",
"I  c #574440",
"U  c #574540",
"Y  c #564541",
"T  c #574541",
"R  c #574540",
"E  c #584440",
"W  c #584540",
"Q  c #594540",
"!  c #584541",
"~  c #594541",
"^  c #5A4540",
"/  c #594640",
"(  c #584641",
")  c #594641",
"_  c #5A4640",
"`  c #5A4641",
"'  c #5B4641",
"]  c #5A4741",
"[  c #5B4741",
"{  c #594642",
"}  c #594742",
"|  c #5A4642",
" . c #5A4742",
".. c #5B4742",
"X. c #5A4743",
"o. c #5B4743",
"O. c #5C4742",
"+. c #5A4641",
"@. c #574945",
"#. c #574845",
"$. c #5B4842",
"%. c #5B4843",
"&. c #5C4842",
"*. c #5D4842",
"=. c #5C4843",
"-. c #5D4843",
";. c #5D4943",
":. c #5E4843",
">. c #594844",
",. c #5B4844",
"<. c #5B4945",
"1. c #5C4944",
"2. c #5D4944",
"3. c #5D4945",
"4. c #5E4944",
"5. c #5C4A45",
"6. c #5D4A45",
"7. c #5E4A44",
"8. c #5F4A44",
"9. c #5E4A45",
"0. c #5F4A45",
"q. c #5E4B45",
"w. c #5F4B45",
"e. c #5C4A46",
"r. c #5D4A46",
"t. c #5E4B46",
"y. c #5F4B46",
"u. c #5F4B47",
"i. c #5F4C47",
"p. c #5D4944",
"a. c #5A4B48",
"s. c #5D4D49",
"d. c #5F4C48",
"f. c #5F4D48",
"g. c #604B45",
"h. c #604B46",
"j. c #604C46",
"k. c #614C46",
"l. c #604C47",
"z. c #614C47",
"x. c #614D47",
"c. c #604C46",
"v. c #624D48",
"b. c #604E49",
"n. c #614E49",
"m. c #624E48",
"M. c #604F4B",
"N. c #624F4A",
"B. c #624E49",
/* pixels */
"                                                                                                                                ",
"                                                                                                                                ",
"                                                                                                                                ",
"                                                                                                                                ",
"                                                                                                                                ",
"                                                          h.x.g.0.v.x.                                                          ",
"                                                h.0.O.W b 3 : = = : : s 1.0.h.x.                                                ",
"                                            O.H 3 & @ @ @ % & & & & & @ @ @ & 3 X.0.                                            ",
"                                        :.A & @ # : b W 0.0.:.W $.W 0.0.W b = # @ & b q.v.                                      ",
"                                    0.b # @ * A :.W : * & % $ & & & & * : b W 0.P & @ # P q.                                    ",
"                                x.:.& @ = $.$.: # @ & = e A b W W A b P b : = = s W $.= + * 1.v.                                ",
"                              h.b # % W :.= + & s W :.W A : : = : @ : :.: P W E 9 , s 1.1.$ @ s d.                              ",
"                            h.: @ 3 h.: + & s 0.P $.W = s * < s A & g.= % < W * P W P 3 b 0.: + : d.                            ",
"                          0.= @ A W & @ 3 P W P * P P & 5 & = = 3 & 3 @ = = : = & : s W L s 1.s + = 0.                          ",
"                        x.= @ H 0.# % W = % s W # * = * b = A W W 5 b : b * @ : @ W = = : P b 0.W @ = d.                        ",
"                      :.: @ W b s % A 0.> % = & & W P W O.* s & & % W & b W W b * W @ % P 0.:.e W A + : v.                      ",
"                    h.b + H P + * & :.0.s = @ = W 0.b O.b & W b 3 A A # A :.W W W : & 0.H W W # s 1.s + s M.                    ",
"                    W @ 3 :.# = W W W W & 9 3 :.E o.* W W H A :.& H 0.:.A 0.* A 0.W A 0.* e :.W P P 0.: @ X.                    ",
"                  0.& & h.A % s * & & W & s & & % W & s * & % O.& 3 & & # W & 3 & & # W * < * & # P 1.1.# * 0.                  ",
"                  b @ $.3 # & X.b 3 W s & W b : W s $ W b e W P # P A 3 P A # b H e b H # b W 3 s W & P P + L d.                ",
"                x.& = 0.= : W W W & :.$.A A :.& :.W :.H W & W :.W b :.& W :.H W :.* b :.W $.$.= s 0.J b o.= $ 0.                ",
"                P @ :.= & * * & W & e & % # $.& s * * $ W & 3 & * % :.& e & & # P * 3 * & # A * : * * # s 0.+ b a.              ",
"              h.& = 0.@ 3 b 5 W e % W A : A s $ W b : W A # W H : b b # A P e b P # b A e b W # s b 3 b W 1.& & 1.              ",
"              W @ W P = W W & 0.O.W A :.& :.:.W W 0.& O.W H A :.* P $.$.W 0.* b :.H A :.= s :.H P 0.= 5 x.0.b @ 1.              ",
"            h.: % :.= % & 1.& s * & % W & s * & % W & 3 & & # W & e = & % H & e * & # W * : = * # H = : = , 0.# s @.            ",
"            x.& = $.& > W e % W b : W b & o.3 : b b # J A s A A # P b : b A # A b e b W # b P e s W # e b s 1.* & @.            ",
"            0.@ A s > & :.W W W $.& q.:.W O.W & :.W H W 0.& $.:.H W 0.* H :.A W :.* A :.b W q.= b :.H P W : s s @ X.            ",
"            W @ :.= = & e * * & W & s & & % W & s & & & :.% 3 * * % W & e = & # A * e = & # H = : * = # b = s W @ W K           ",
"            s # :.: , & A e : W s & P s : b b & P b : A b # b e : b W # b e : s A % A b : b $.% e A e s W = b 0.@ b K           ",
"            3 % :.1.1.1.0.W & 0.W A W 0.& :.W W A :.* :.W A H $.* O.W b W :.* H :.P W O.= P :.b W 0.W 0.0.O.0.0.# , L           ",
"          v.: & 1.$.$., P $.* s = * & $.& 5 = = % W & s * & % :.& s * * # $.& e = * # H * : = & # b :.P = W 0.0.& : L           ",
"          v.= & q.0.O . X 0.: , 3 : b s # b 3 : b A # b e > H A # b s : b W # A b : s $.$ e s : s 0.$.X . O W O.& = 9           ",
"          0.= & 0.0.O . o 0.e 3 W * $.W b H O.& :.$.b W O.= O.W b W 0.* W :.b $.0.& A :.b W q.> b :.:.X . O :.0.& = 9           ",
"          x.: & d.0.W > W P & & :.& s = = & W & e = = # W & s = * & 1.* 5 = = # H * e = * & P = : : $.$.: W 0.:.% > 9           ",
"          x.9 # 0.$.A A e & & b s # P s = b e # A e : s P # b s : s P # b s : 3 P # b s > e $.% 9 s e s P P 1.0.% e :           ",
"            P # 0.s & & # s * 0.W A W :.* :.H l $.:.& 0.:.b O.0.* W $.b W 0.= W :.b W :.* l :.e W 0.= * & * P 0.@ b *           ",
"            A @ 1.s * * & $.& b = = & W & s = = & W & b = = & W & s = = & W * e , * % A & 3 : = % b = 3 : = W W @ P &           ",
"            O.@ s , * : b s $ W : : A b # b : , e s # A 3 : s P # b : : s P @ e s = 3 W # b e > 3 W % 3 3 = W s # P             ",
"            v.* * 0.W = O.H A :.0.* O.W s W $.* 0.W b W W & 0.W s W 0.* W W b W 0., A :.b $.:.= b :.3 W h.W :.= & s             ",
"            v.: # 0.P & e , = & W & s = = & W & s = = & W & s : = & W & s : = & W * e : = & b = e : = % b 0.:.# e -             ",
"              W @ 1.P & s : , s P $ A : = s P # A e : 3 A # b 3 = 3 W # b : = s W # 3 : > : H % e e > : W 0.b # A $             ",
"              0.& * W , 1.1.* 0.A b :.:.* q.$.b W :.* W W b W :.= W 0.s W 0.= W W b $.:.> b O.e 0.:.> e :.:.& & 5               ",
"                j @ W P * 1.& s = = & W & A : = & W & b > = & W * s : = & H & e < : & W = > > : & A = s q.W @ A &               ",
"                0.& = 1.: : # s > = b A # b : = e b @ A : = 3 J $ s : = = H % b < = 3 W # : > = = A % b 0.> & b +               ",
"                q.A + P W : s $.:.= :.b 3 W O.= :.H e $.O.= O.W 3 :.h.= J W 3 W 0.= b O.5 O.h.: A :.e $.W @ A &                 ",
"                  0.* & 0.W : * H & A : : & W & b : : & W & b : : & W & b : = & E * 3 3 : & W = : e $.:.% * s                   ",
"                    1.+ = 0.* : s # j : = 3 b # b = = : J @ b < = < b % s > = : W $ 5 : = : W % 3 l :.: # W $                   ",
"                    d.s + b 1.} A s :.:.= 0.b 3 O.0.= 0.O.5 W h.= A W 3 W :.= W 0.3 O.0.> b O.: :.x.A O P -                     ",
"                      0.: + P 0.W : * W & P : < * W # b : : & W & e : : & A & b s 3 & J & 3 e :.:.A @ 1 9                       ",
"                        0., + A W * : b # s = = = = = A = < 3 b @ b = = : b & 3 = = = W % 3 3 $.P # > e +                       ",
"                          0.= + s :.1.s e 1.0.0.3 < = : = 5 W b = O.H > & e & = < 0.O.H = O.g.A @ > s +                         ",
"                            q.: + , 1.0.$.= W W 3 3 = & & < : : = = & & & s & * : o.g.O.g.h.> + e j +                           ",
"                              d.P @ $ W 0.P W $., @ = & = s W & & % = & & b * 3 = O.h.:.H & # A : +                             ",
"                                d.0.* + * 1.d.1.W b W = * s W @ e # l = % = l O.O.h.W = + = P -                                 ",
"                                    s.P $ @ * P o.h.0.X.P W W b W b :.H W :.:.:.J * @ & P s $                                   ",
"                                      1.1.s & + @ = b 1.1.0.l.0.q.0.:.0.W b = % @ & J b -                                       ",
"                                          @.1.X., & # @ @ # & & & % # @ @ # * e P s $                                           ",
"                                                P 1.P P s 3 = < > : 3 s b b s * $                                               ",
"                                                        , , 9 9 9 : * - $                                                       ",
"                                                                                                                                ",
"                                                                                                                                ",
"                                                                                                                                ",
"                                                                                                                                ",
"                                                                                                                                "
};
