/* XPM */
static char *dfef1f2742e2424dff245fedec6f7e3fkSHzhwJgNdeyLqUm[] = {
/* columns rows colors chars-per-pixel */
"52 64 239 2 ",
"   c None",
".  c #0C0C05",
"X  c #160B05",
"o  c #16160B",
"O  c #090B14",
"+  c #0B1311",
"@  c #0B1A13",
"#  c #081B16",
"$  c #121C15",
"%  c #1C1C15",
"&  c #141D1B",
"*  c #191817",
"=  c #0F1411",
"-  c #251C06",
";  c #261F19",
":  c #3A1E1A",
">  c #1B2214",
",  c #13231C",
"<  c #1A231D",
"1  c #1A2719",
"2  c #0A231B",
"3  c #232B1D",
"4  c #2B2C1C",
"5  c #252516",
"6  c #342B1C",
"7  c #2B321E",
"8  c #382E00",
"9  c #1C2521",
"0  c #1E2924",
"q  c #1A2B28",
"w  c #0F2721",
"e  c #222C24",
"r  c #232C29",
"t  c #292B27",
"y  c #382923",
"u  c #273126",
"i  c #2B3324",
"p  c #25322C",
"a  c #2A352B",
"s  c #2D392C",
"d  c #2E3824",
"f  c #3A3624",
"g  c #343C2C",
"h  c #3C3D2A",
"j  c #353725",
"k  c #2D3B31",
"l  c #273731",
"z  c #323E32",
"x  c #363B35",
"c  c #4F1706",
"v  c #5A2500",
"b  c #4B371C",
"n  c #533017",
"m  c #673519",
"M  c #473A26",
"N  c #573827",
"B  c #5A3234",
"V  c #7A3C30",
"C  c #3C422E",
"Z  c #34412D",
"A  c #2D4135",
"S  c #2E433A",
"D  c #354234",
"F  c #3B4435",
"G  c #3D4936",
"H  c #364438",
"J  c #3B4539",
"K  c #3D493B",
"L  c #45442C",
"P  c #4B442A",
"I  c #434634",
"U  c #444936",
"Y  c #4C4B34",
"T  c #41463A",
"R  c #434C3C",
"E  c #4A4D3A",
"W  c #4A4735",
"Q  c #524E38",
"!  c #554B33",
"~  c #46513D",
"^  c #4B513E",
"/  c #4C583A",
"(  c #5C5434",
")  c #53533C",
"_  c #5A543B",
"`  c #5D5A3D",
"'  c #535237",
"]  c #554B2C",
"[  c #6B5B3C",
"{  c #64563A",
"}  c #745C39",
"|  c #70512F",
" . c #6C623E",
".. c #79623E",
"X. c #73613E",
"o. c #434D41",
"O. c #465242",
"+. c #4C5443",
"@. c #4E5945",
"#. c #4D5748",
"$. c #525442",
"%. c #535B45",
"&. c #5D5B43",
"*. c #545C4A",
"=. c #575C4A",
"-. c #625D41",
";. c #695B43",
":. c #755E42",
">. c #56614B",
",. c #5B634C",
"<. c #5F694C",
"1. c #5C6551",
"2. c #5E6952",
"3. c #576250",
"4. c #646246",
"5. c #6C6244",
"6. c #60654D",
"7. c #6A664A",
"8. c #646A4E",
"9. c #6D694D",
"0. c #736544",
"q. c #7B6543",
"w. c #756944",
"e. c #7B6B45",
"r. c #756B4C",
"t. c #7C6D4A",
"y. c #746749",
"u. c #616651",
"i. c #646B53",
"p. c #6A6D53",
"a. c #6A6C56",
"s. c #756F53",
"d. c #6A7255",
"f. c #6C735A",
"g. c #6A7459",
"h. c #72745B",
"j. c #737A5D",
"k. c #7A7D5E",
"l. c #7E714C",
"z. c #7A7E61",
"x. c #767960",
"c. c #8D5033",
"v. c #A5643C",
"b. c #8A6435",
"n. c #836C45",
"m. c #846D49",
"M. c #8B6D49",
"N. c #866943",
"B. c #84724A",
"V. c #8B744C",
"C. c #8C7548",
"Z. c #937B4D",
"A. c #94774C",
"S. c #8D7C53",
"D. c #847350",
"F. c #977C55",
"G. c #90694A",
"H. c #A56845",
"J. c #A6794C",
"K. c #B67D53",
"L. c #B27954",
"P. c #C77E4E",
"I. c #7C8363",
"U. c #7C8568",
"Y. c #9C8455",
"T. c #998656",
"R. c #9F814F",
"E. c #A28254",
"W. c #A48B5B",
"Q. c #A88A57",
"!. c #BA8758",
"~. c #AA925D",
"^. c #B3925C",
"/. c #BD975E",
"(. c #858B6A",
"). c #858869",
"_. c #8E9372",
"`. c #8B8E6F",
"'. c #AC9662",
"]. c #B19662",
"[. c #B49A64",
"{. c #BA9C65",
"}. c #BA9865",
"|. c #BB8F6A",
" X c #BCA46A",
".X c #BEAB79",
"XX c #CB8659",
"oX c #D48B58",
"OX c #D7925F",
"+X c #C4864E",
"@X c #C88861",
"#X c #C99A65",
"$X c #D49963",
"%X c #D29D6C",
"&X c #D29566",
"*X c #D0986F",
"=X c #C3A36A",
"-X c #CCA46C",
";X c #C4AA6C",
":X c #CCAB6D",
">X c #C7A466",
",X c #D5A76B",
"<X c #CFB16E",
"1X c #D4B16E",
"2X c #C6AE72",
"3X c #CCAE72",
"4X c #CDAB79",
"5X c #D4AD74",
"6X c #D3A37B",
"7X c #D9A771",
"8X c #CEB173",
"9X c #C5B37A",
"0X c #C9B57A",
"qX c #D4B373",
"wX c #D8B574",
"eX c #D7B876",
"rX c #D2B578",
"tX c #D4BB7C",
"yX c #D9BC7B",
"uX c #D9B878",
"iX c #D5C17E",
"pX c #D9C17E",
"aX c #C2B381",
"sX c #D9BE80",
"dX c #D1AD84",
"fX c #D6C585",
"gX c #D9C482",
"hX c #D7CA85",
"jX c #D8CA86",
"kX c #D6CD8B",
"lX c #D9CC8C",
"zX c #D5C688",
"xX c #D6D08E",
"cX c #D9D18F",
"vX c #D6CE91",
"bX c #D9CE91",
"nX c #D6D292",
"mX c #D9D293",
"MX c #D9D699",
/* pixels */
"                                          x K K K #.o.o.                                                ",
"                                    t a D K o.O.O.o.o.o.o.K x                                           ",
"                                t u D H H H D K o.o.S J x F F T F g                                     ",
"                              a s H K K J J J J J o.x x K $.1.1.=.U F x                                 ",
"                          e p z K K K K K J J J S x x J +.=.a.f.f.>.+.R F T                             ",
"                        r p k D K K o.o.H J H z x K o.o.o.=.u.f.j.f.i.*.+.T I                           ",
"                    r r q l k H G D D H J J H z H G R +.$.,.i.a.j.h.a.i.=.E h R                         ",
"                  r q q l A H J z z s x H x K o.G +.$.+.$.,.,.f.j.x.h.a.3.$.R E E                       ",
"                  r r r l k S H k a s K o.o.o.+.#.3.*.=.1.2.2.f.g.g.j.i.,.>.#.~ R +.                    ",
"                r r r r k x x k l l z K o.+.*.>.2.*.>.2.2.f.f.f.g.d.d.2.,.*.~ +.~ @.#.                  ",
"              x r r r r l k k k l D K O.+.+.@.%.1.2.3.3.2.g.a.f.f.d.<.,.>.+.~ ~ O.+.*.                  ",
"              p p r r r p k k D H O.O.O.+.#.>.%.i.a.a.2.3.2.a.f.j.g.8.,.>.+.+.O.O.O.#.+.                ",
"            a l r 0 r 0 p S A k G R +.+.#.1.u.u.f.f.f.u.2.3.2.u.g.g.i.1.=.R ~ +.O.O.@.#.                ",
"            t p r 0 r e l l A A F R %.%.2.f.a.a.f.f.h.a.i.3.3.1.i.g.a.=.+.R F ~ O.~ O.#.E               ",
"            p p p r r r a S S G E >.1.-.i.x.x.f.h.h.a.a.a.2.=.3.i.a.1.=.+.E R R K K ~ O.K               ",
"          t r r r r q r k k A K o.3.a.a.a.x.h.f.x.h.f.f.f.x.i.u.a.g.=.+.o.E R ~ ~ J K O.R               ",
"          9 q e 0 r 9 0 r l x J o.1.f.f.j.z.x.j.k.s.j.I.I.I.).h.h.9.>.O.E ~ R G o.G K K G               ",
"          9 0 9 0 r 9 r p l k J E 1.u.f.x.I.j.z.).k.I.).I.I.`.k.s.p.i.~ R R ~ O.K K D G G U             ",
"          & , & & 9 0 0 r p x K +.=.=.p.h.z.k.`._.).(.(.I.j.I.h.s.a.8.%.+.R R R K K G K K R             ",
"          & w & & 9 0 r r l k o.o.) =.,.f.h.I.S._.(._.(.I.I.g.d.h.i.8.*.+./ G J K G D K K /             ",
"          & w & 9 & 0 r r a z o.~ U >.1.i.p.h.I.).I.(.I.I.j.j.d.8.8.<.%.+.O.G F K K G H O.O.            ",
"          , 2 & & 9 r r a a D o.#.~ >.,.,.i.g.f.I.I.I.I.d.j.U.p.i.8.1.%.+.O.R F K K K o.O.O./           ",
"          # & $ & 9 0 0 r k z O.#.+.#.1.%.<.i.i.g.I.j.I.8.h.d.,.i.i.,.%.+.R z Z G K O.o.O.@.@.          ",
"          # # & & 9 9 0 e p D K R O.#.,.%.=.<.>.d.d.d.h.d.f.i.&.,.2.>.#.R R G D H K O.o.~ >.>.          ",
"          & # & 9 & 9 9 q q k D D R O.*.+.=.*.%.8.8.d.d.a.g.i.%.>.%.*.R R K K J D K #.~ R @.>.          ",
"        r , , < & 9 & & 9 q q p z D J O.G +.^ @.,.8.8.>.>.d.=.@.@.@.O.R G K K K G K +.~ R / >.          ",
"        r < < 9 e e & @ & , 9 e k k z K G G K ~ / >.<.>.) %./ ^ @.R F R D J x R R K ~ +.+.^ /           ",
"        a 0 < 1 0 9 & @ @ $ , > e a z k s A D G R %./ Y ~ I R K R G J x z x x E U R ~ O.o.o.)           ",
"          q w 1 9 < , > @ & , < 0 0 u a s s a A K R G D Z g D D Z A D Z D J h J G G F G o.$.;.          ",
"          1 2 > < & @ < > , 0 9 1 0 u u e a e s z s s u u u Z d Z Z G D H G R T G H C F M =.9.          ",
"          5 o $ $ $ , < 9 0 e 1 < < u e 1 0 1 e u e 3 u 1 3 s Z G D F C C U $.E F D g T o.;.9.          ",
"          6 - $ @ + $ > e p p e 0 e u 0 u 1 e u u 4 7 3 5 i g I E R U I C Y ^ R G A F o.Q :.F.    @X%X  ",
"  6X&X    y ; * # # = < 0 t a a e e e a a u e e i 7 7 7 4 d F E ^ / ) U U W E G G D D R { G.|.dX@XXX%X  ",
"  6X&XL.  B y ; 2 # 5 e 9 e e u d i u j g d d u d Z g d 7 C I o.+.+.+.W U T R T R T G ) } A.*XuX@XXX6X  ",
"  6X&X@Xc.V n ; w w & % < 9 e u a d a j x F x C F C C Z g G U / $.) ^ U I G I R R R E { G.!.%X7XoX&X    ",
"    *X*XH.V N 6 1 < ; % > & 1 3 a a d g F R U U E U Y C C Y Y ^ %.^ E I F x g I U U Y ;.J.!.5X,XoX&X    ",
"    6X,X!.c.n b 5 # * * o > , > 3 i i Z G E ~ E / ) E L I ^ ) ` &.$.U F a a i I L L / q.R.;XgXwXOX      ",
"    6X5X-XH.m n 5 9 * X X = = = > 1 u a F ~ ) ) ) ) ) W Y ) { 4.&.) I f e e t j f I &.V.}.yXjXsX-X      ",
"    *X4XqX!.m N 6 5 = X X . . . = 1 3 i F Y ) ' ` ,.&.) ) ) -.4.-.Q h t 4 3 > i M ) y.L.#XgXgXdX4X      ",
"      4X8X*Xc.N N 5 = + . . . O + > > 7 f W ) _ ` { 7.4.` -.7.4.&.E f 4 5 > 5 f P ;.S.Q.$XwX6X*X        ",
"      rXuX,Xc.m ] f 5 $ + . O O + o - d Z Q &.-.;.;.7.5.9.7.7.5.-.Q f 4 7 7 d P [ C.W.Q.P.&XOXOX        ",
"        uX,Xv.v b L M y % = O O = o ; 4 L ) -.7.0.:.9.0.7.r.s.s.7.&.h 4 8 h (  .C.Y.~.v.v.P.OX&X        ",
"        4X,Xv.v b ` { ] f 6 * + O * ; 6 M Q 5.y.t.D.t.0.y.t.D.e.r.9.W M P ( ..T.Q.^.Q.c.c.v.XX          ",
"        *X,XH.c 8 { :.[ ! P 6 $ + $ 5 i E _ y.B.S.S.m.m.B.B.V.V.B.t.] P  .I.T.'. X X^.H.K.P.P.          ",
"          %X!.m - ] } ..0.` L 3 > @ < h Q :.m.V.F.T.S.Y.T.Y.W.Y.T.l.` ( ..W.'.>X>X X}.+XOXXX            ",
"          &X*Xb.6 M } ..l.e.{ I 4 > 7 W :.V.T.W.L.].~.].].^.[.'.~.T. . .T.'. X>X:X>X].J.+X              ",
"            *XH.c f | e.D.C.e.) g 7 j ( V.W.{.=X=X X X X;X3X2X2X;X'.T.T.~. X.X;X:X;X~.b.                ",
"              c.n b ( ..B.T.B.5.! L L [ F.[.-XrX5X2XsXtXsXsXsXtX<X XT.T.'. XiX<X<X;X X                  ",
"                  L ( :.M.V.m.0. .' ( ..Q. X<XuXyXyXfXjXlXlXlXlXyX2X].~.{.;X1XqXqX2X.X                  ",
"                  M ( 0.M.M.t.e.0. . .C.^.>XqXuXsXfXlXlXkXvXvXkXpXsX X'. X5XqXqX8X9XaX                  ",
"                  M ! [ m.m.e.e.w.w...T.{.:XqXiXsXgXlXbXvXvXnXxXjXsX2X X=X3X5XwX8X0X                    ",
"                  M P } N.M.m.e.l.e.B.W. X:XyXiXgXsXbXbXnXnXnXnXlXgX8X;X>X:XrXqXqX0X                    ",
"                    b [ q.M.m.q.n.B.Z.~.=X7XyXpXsXsXlXbXvXmXmXmXlXgXrX;X=X:XqXqX:X9X                    ",
"                    P { q.M.q.q.n.C.R.^.-X1XyXyXsXgXlXvXvXnXmXnXlXpXtX8X=X-XrXqX8X9X                    ",
"                    M { q.n.:.} N.A.E.}.-XuXyXpXfXfXlXvXmXnXmXlXhXiXtX8X:X3X5X1X0XaX                    ",
"                      ( X.e.....M.A.Q./.:XuXpXhXjXkXmXbXbXlXlXlXhXiXiXqX5XrXwXqX8XaX                    ",
"                      { 5.q...n.C.R.Q./.<XeXeXpXhXxXcXmXbXlXlXkXxXhXgXyXuXrX5XqX8X                      ",
"                         .X.N.M.R.Q./.>X1XeXyXhXjXjXxXcXlXlXlXxXxXhXgXyXwXrXwXqX9X                      ",
"                         . .N.A.Q.^.#X>X1XwXpXpXjXlXlXmXmXbXlXxXxXjXhXyXeXqXwX0X9X                      ",
"                          X.M.F.~.+X>X,XqXwXpXgXlXlXkXbXmXbXbXkXhXxXhXpXyXuXuXrX                        ",
"                          t.F.Q.^.#X>X1XqXwXyXfXlXcXxXnXvXbXbXvXxXkXhXiXpXpXyXtX                        ",
"                          D.E.^.#X>X,X1X1XuXgXfXlXlXnXnXvXbXbXmXxXkXhXgXpXpXtXtX                        ",
"                          F.Q./.>X1XuXwXeXgXfXkXkXcXmXMXmXMXMXmXkXkXkXlXhXfXiXtX                        ",
"                          W.].>X,XqXuXyXpXfXkXkXcXmXmXMXMXMXMXmXmXbXlXlXlXhXpXiXaX                      "
};
