/* XPM */
static char *_af49eb1219a48d5d1338f79f7ed1059nXvIDc3p6Uw21MKN[] = {
/* columns rows colors chars-per-pixel */
"43 64 243 2 ",
"   c None",
".  c #0E1514",
"X  c #0A1C16",
"o  c #131515",
"O  c #131A15",
"+  c #1C1C13",
"@  c #161619",
"#  c #141B19",
"$  c #1B1C1B",
"%  c #191613",
"&  c #131110",
"*  c #221D17",
"=  c #0D221D",
"-  c #13231C",
";  c #1C231C",
":  c #1C2A1D",
">  c #23241C",
",  c #2B251A",
"<  c #232A1E",
"1  c #2C2B1C",
"2  c #282415",
"3  c #342B1B",
"4  c #3B2918",
"5  c #2E321D",
"6  c #25301F",
"7  c #33321C",
"8  c #3A351D",
"9  c #38361B",
"0  c #1B2D23",
"q  c #162A27",
"w  c #1B3228",
"e  c #193533",
"r  c #1A3935",
"t  c #242C21",
"y  c #2B2C22",
"u  c #242622",
"i  c #243223",
"p  c #2C3222",
"a  c #2D3A26",
"s  c #313422",
"d  c #343B24",
"f  c #3B3D24",
"g  c #3A3D29",
"h  c #373826",
"j  c #253831",
"k  c #44391E",
"l  c #48381D",
"z  c #513D1A",
"x  c #4C3C23",
"c  c #413D24",
"v  c #693E21",
"b  c #3B4125",
"n  c #3B4329",
"m  c #25443E",
"M  c #4C431F",
"N  c #57411E",
"B  c #434325",
"V  c #4B4424",
"C  c #43432A",
"Z  c #4B462B",
"A  c #464A2C",
"S  c #4B4B2B",
"D  c #4E4A26",
"F  c #544525",
"G  c #544B2B",
"H  c #5B4D2B",
"J  c #594627",
"K  c #5B532C",
"L  c #57522B",
"P  c #4C4D32",
"I  c #444931",
"U  c #594C34",
"Y  c #4E5333",
"T  c #535334",
"R  c #5B5333",
"E  c #5B5B3A",
"W  c #5A5839",
"Q  c #49512E",
"!  c #634C2A",
"~  c #6C4D2A",
"^  c #664726",
"/  c #754E2B",
"(  c #63532D",
")  c #6C542D",
"_  c #77562D",
"`  c #6C5432",
"'  c #6D5C33",
"]  c #635C3B",
"[  c #6A5B3B",
"{  c #645735",
"}  c #725C34",
"|  c #7C5C33",
" . c #745B3A",
".. c #775639",
"X. c #6A4C35",
"o. c #6C603C",
"O. c #65643D",
"+. c #73643E",
"@. c #7D653B",
"#. c #79653A",
"$. c #294C46",
"%. c #31544B",
"&. c #385B52",
"*. c #2F4E45",
"=. c #3F6157",
"-. c #5C5B41",
";. c #6B5E43",
":. c #755B49",
">. c #5E6142",
",. c #646446",
"<. c #6C6A4B",
"1. c #6A6644",
"2. c #7C6B43",
"3. c #746946",
"4. c #7B744B",
"5. c #787456",
"6. c #707052",
"7. c #845D36",
"8. c #895028",
"9. c #84643B",
"0. c #89653C",
"q. c #8D6A3D",
"w. c #876739",
"e. c #946C3C",
"r. c #976837",
"t. c #9B713D",
"y. c #9A763E",
"u. c #92642F",
"i. c #A6693D",
"p. c #8C6B42",
"a. c #846747",
"s. c #926C43",
"d. c #9A6D44",
"f. c #8B734C",
"g. c #887649",
"h. c #957344",
"j. c #9C7343",
"k. c #93754A",
"l. c #9A764B",
"z. c #9C7A4D",
"x. c #977B4B",
"c. c #897B52",
"v. c #937D54",
"b. c #9B7D52",
"n. c #937D59",
"m. c #846956",
"M. c #A27644",
"N. c #A37B44",
"B. c #A37B4B",
"V. c #AC7D4B",
"C. c #A77648",
"Z. c #B27A4B",
"A. c #A37D55",
"S. c #A77E58",
"D. c #B57B57",
"F. c #B17D62",
"G. c #805D4B",
"H. c #88835A",
"J. c #9C845C",
"K. c #9A8356",
"L. c #AC824B",
"P. c #A4834E",
"I. c #B1824E",
"U. c #A38354",
"Y. c #AA8452",
"T. c #A4845A",
"R. c #A9855A",
"E. c #A5885B",
"W. c #AC8C5C",
"Q. c #AB8954",
"!. c #B48453",
"~. c #BB8555",
"^. c #B98A56",
"/. c #B38D5C",
"(. c #BB8C5B",
"). c #B58A53",
"_. c #B8915E",
"`. c #9B8966",
"'. c #928A66",
"]. c #A68B63",
"[. c #AC8C62",
"{. c #A98A65",
"}. c #B58A66",
"|. c #AA9268",
" X c #B49364",
".X c #BB9465",
"XX c #B4946A",
"oX c #BB966A",
"OX c #BD9A6C",
"+X c #B7996B",
"@X c #AC9A75",
"#X c #BC9D73",
"$X c #B79A75",
"%X c #B28C71",
"&X c #BDA37A",
"*X c #C08D5B",
"=X c #C0915E",
"-X c #C39362",
";X c #C49966",
":X c #C49C6B",
">X c #CA9C6D",
",X c #C79568",
"<X c #C39E73",
"1X c #CC9D73",
"2X c #C38D63",
"3X c #CAA16E",
"4X c #C3A06E",
"5X c #C4A274",
"6X c #CAA374",
"7X c #C4A37B",
"8X c #CBA67B",
"9X c #CCA97D",
"0X c #CBA87A",
"qX c #D1A57A",
"wX c #D3AB7C",
"eX c #D2A375",
"rX c #BEA681",
"tX c #C4A681",
"yX c #C6AA83",
"uX c #CBAB84",
"iX c #C2AC89",
"pX c #CBAE89",
"aX c #D5AD82",
"sX c #D7AA83",
"dX c #CDB185",
"fX c #CDB28C",
"gX c #D5B283",
"hX c #D3B48C",
"jX c #D7B78C",
"kX c #CEB591",
"lX c #CEB997",
"zX c #D1B692",
"xX c #D2B994",
"cX c #D4BC99",
"vX c #D6BA95",
"bX c #D5C19C",
"nX c #DAC49B",
"mX c #DFCAA4",
"MX c #D9C5A2",
"NX c #DFD0A9",
"BX c #E1CCA5",
"VX c #E3CFA9",
"CX c #E4D4AF",
/* pixels */
"                                    @ o o O o @ @                                     ",
"                              $ # o @ o % $ ; * * $ # @                               ",
"                          O o $ ; < 1 1 y s s y s y > @ o o                           ",
"                      O O # t h s C C Z g c C C g f f 6 ; o @ O                       ",
"                  $ @ # < a C C n A Z U T T C P P c h s t ; $ o & %                   ",
"                O o ; p f C S S L T ,.1.;.] ] U U C g n p u < # & & %                 ",
"              # O ; p f C A Q Q E W 1.1.4.3.1.W T I c n n 5 p t @ o & @               ",
"            # - : t d b n n I E ,.,.<.3.6.<.,.-.Y Y P g g p y > ; @ o O #             ",
"          $ @ 0 < d b b b Q Y >.-.<.,.6.,.<.-.,.I T P d d 6 t < $ u @ @ .             ",
"        0 # ; s A T A B Q R E E -.-.6.6.6.6.5.-.T ] Q A d d d p u u $ @ O #           ",
"        $ - p A E O.Y Q R E E ,.<.5.5.'.5.5.H.<.1.+.+.] A b f b 9 7 , $ O O           ",
"      0 ; < Z [ 2.#.{ { 2.a.v.`.'.rX%X`.'.5.5.5.f.T.[.J.2.( H G V V h > @ . #         ",
"      : q a W n.K.k.f.g.J.XXtXpXiXcXlXlX@X3.J.@XXXOX7X7XXXb.w.` H ! V s $ @ O         ",
"      ; t n 3.$X X XoXoX5XuXfXxXxXcXcXcXiX].rXyX7X7X7X7X5X;X/.z.w.| ( B < # O         ",
"      : s Z m.pXpXpXaX8X8XuXdXkXzXzXzXkXkXiXpXpX7X8X7X6X5X:X;X-X!.d.7.F 1 ; O         ",
"      < n K v.cXnXhXuX7X7X8XuXfXfXfXkXfXpXpXpXuX8X7X5X5X:X:X:X;X=X*Xr.J 6 > O         ",
"      y A +.|.nXbXdX7X4X5X7X7XyXpXuXpXdXdXpXyX7X<X<X<X<X<X:X>X-X;X-XZ.^ 5 : - +       ",
"      s [ `.tXNXlX0X5X&X5X#X5X7X7X7XyXuXpXpXpXyXtX<X<X<X<X<X:X;X,X;X(.| 8 2 ; +       ",
"      h 2.|.iXMXfX7X5X&X5X7X7XyXyXtXpXyXpXpXpXpXuXyXuXtX8X1X:X:X>X;X-Xe.N 9 2 +       ",
"      f ;.{.iXcXfX0X5X5X7XyXfXcXxXkXfXfXpXpXfXpXpXkXkXuX8X6X5X6X3X3X>XN.~ k 1 +       ",
"      9 G n.yXvXhXdXdXdXfXkXkXcXMXlXMXcXfXfXfXfXlXlXvXhX9X9X0XqXwXwXwX^.| z , +       ",
"      f G ].pXzXkXhXxXbXxXkXfXcXMXMXMXbXlXkXkXxXzXkXkXzXjXjXjXgXwXwXeX>Xt.N 1 +       ",
"      d G %XpXzXkXnXnXxXxXpXiXkXlXbXbXcXcXzXfXkXzXfXpXzXhXxXhXgXwXwXwXeXZ.~ , *       ",
"      7 R #XpXcXbXmXvXhXpXyX#X7XiXkXkXpXkXfXyXyXpXpXuX9XwXuXwXsXgXwXwXeX~._ ,         ",
"      7 U <XtXkXCXVXlXzXkXpX#X#X#X7X7X&X7X7X&X7XtXtX<X5X5X8X8X8XwXjXwX3X*X| >         ",
"      5 W <XtXkXNXcXrX&XiXiXrX$X$X|.XX#X#X#XXXXX#X#X#X7X&X%X].].;XwXaX>X-Xe.>         ",
"  jX  B R <X7X$X@XJ.] T -.;.U U ] [ ;.f.U.[.A.z.b.f.3.;.T C Z ! 0./.(.,X,Xz.,   ,XeX  ",
"A.[.9XH.;.tX<XT.} ( f t ; @ O o o $ * 4 ) h.0.~ J 3 $ o . $ s Z 0.(.!.*X>X/.x [.,XZ.Z.",
"7.v |.&Xn.tX7Xl.` ( g y - - - # O o o 2 ( b.x.H * $ @ $ # 0 : 7 ! e.V.=XeX}.9.=XZ.8.i.",
"B.8.d.T.T.yXtXn.( f g < - - - p > ; > Z $XnXwXc., y > y 0 $ : h c ) V.>XqX,XV.M.i.8.Z.",
"}.C.l.w.b.iXpX}.0.o.E f g n n I c c V c.fXBXnX5X[ J x c Z A T  .A.oX.X6XuX6X~.r.i.i.~.",
"<X1XA...k.tXpX<X X[.9.M c C U R [ +.p.+XhXBXnXgXoXk.@.` H J ) e.!.3X6X5XsXqXI.8.r.*X2X",
"yXsXd.X.}.#XpXpX0X&XE.@.#.a.v.J.|.+X#X0XhXBXnXgXqX5X XE.K.z.l.Y._.;X3X6XwXwX(.r.d.,X1X",
"  cX{.A.tX}.tXzXhX9X5XOXOX&X5X7X7X6XuXjXnXVXnXwXqXwX9X7X:X4X.X;X;X4XeXwXgXqX,X(.1XsX1X",
"  cXuX<X#XR.oXpXhX9X0X0X0X9XdXhXuX9XjXnXnXmXmXsXwXwXgX9X9X5X5X3X3X3XwXjXaX1X,X,XqXsX  ",
"  tXvXuX$XS.R.XX&X0X5X0XdXkXhXhX8X7XjXBXnXnXBXjXwXwXwXwX9XdX0X6X4X3XwXjXwX-X2X2XeX1X  ",
"  %XpXzX[.z.d.l.E.OX4X5XdXhXuXuX5X:XzXVXBXVXBXsXeX0X6X0X9XwX9X6X6X6X8XwX1X*X~.,X1X1X  ",
"  iXvX7XF.l.p.p.h.Q./.4X5X0X0X5X X XcXCXMXmXMXjXqX6X;X3X6X6X0X6X3X3X>X:X-X(.,X1XsX8X  ",
"    cXkXtX[.p.9.p.y.P./.OX4X5X4X+X7XBXpX&XuXfXsXhXgX6X:X5X6X3X4X,X;X-X-X*X*X-XeXsX    ",
"      kX#XT.k.#.w.e.x.E./.OXOXOXoX|.n.X.X.a.k.B.Y.oX3X4XOX;X;X;X;X;X-X(.(.^.!.,X8X    ",
"          b.z.9.#.e.B.P.Q./.OXOX5Xg.2 & * , l v 4 v D.5X:X:X.X-X-X*X*X^.}.~.          ",
"            b.p._ 0.z.P.E._.OX0X8X].Z 3 * % $ , x ~ S.8X6X5X;X;X;X*X^.^.(.!.          ",
"            z.p.} 9.k.Y./.OX5X0XpX&Xb.+.G y > x 7.l.oX8X9X6X6X4X;X^.!.!.~.!.          ",
"            l.p.| 9.s.Y. X5X5X7X7X&X|.`.k.' H a.A.{.:X8X0X6XwX3X.X^.!.L.!.!.          ",
"            k.p.w.w.s.R.OX<X X|.XX@X%X%X{.{.T.R.}.oXoX:X:XOX3X3X-X~.^.!.!.            ",
"            p.p.e.0.0.U.oX XE.g.2.n.2.v x .. .! ..A.}.b.x.Q.;X>X(.^.!.I.I.            ",
"              p.q.q.q.P. XW.x.U 3 3 * * % * * , k l ^ V F k._.;X(.^.L.V.L.            ",
"              } w.q.9.p.z.k.f.a.;.;.:.m.:.X.X.:.G.a.G. .} q.P.(.^.L.V.M.N.            ",
"                ` w.} _ #.@.h.W.W.E.[.}.%X%X%XF.F.F.2X}.Q.h.j.V.C.C.t.t.              ",
"                ) ! ) ^ H ' g.P.y.| ` X./ ......7.7.C.D.W.B.j.M.t.r.r.Z.              ",
"                #.N H K N K o.' ( M 7 6 , , 3 3 8 J 7.M.j.e.j.e.r.u.r.^.a.            ",
"                w.^ l F L ( ( M M M M M J X.{ G J ! 7.0.u.e.t.r.u.u.C.(.F             ",
"              ;  ./ l l N ( #.#.' #.g.].rXiXiX$XE.z.x.N.P.L.C.e.r.t.L.^.9.A           ",
"            0 q +.0.l 9 k F @.P.W.+X0X9XfXxXlXkXdX0X:X.X X^.N.t.t.y.L.).y.#.}         ",
"          j 0 # 1.l.J 1 , 9 K K.W.OX&X&X7X7X7X7X7X6X5X:X_.V.u.t.y.y.L.L.w.q.L 0       ",
"        *.j # # ;.A.} h * * 9 D #.K.U.E.E.W.W.Q./.oXOXW.j.7._ u.t.P.L.P.@.@.p 0 p     ",
"      *.m q - = ;.Q.w.D 1 $ ; 1 h A K ' o.o.o.o.#.q.e.| / ~ / 0.t.N.Q.P.o.L - 0 w 0   ",
"    *.%.$.0 = - 4.W.g.' b > $ $ 0 i i a d d h g S ! ^ ^ v ^ ^ | y.N.y.q.D O X = e q 0 ",
"r m %.%.m q = b 2.].b.#.L 7 > $ $ # - q w i i a b c l z N N J ) e.q.L D b X X = q e e ",
"m %.&.$.r q = >.1.J.J.4.] Z 5 > $ O . . . o # $ 1 9 8 l l z z M ( ( b 9 a : X = q e e ",
"m &.&.$.r = b 4.O.4.K.g.2.R B 6 > $ # # o @ $ u 1 9 8 8 9 9 9 M D D b a b i X X q e e ",
"&.=.&.m w = n '.O.+.K.K.g.2.{ B a > ; $ $ > u y 3 5 1 t 6 5 k D L D b b Q i X X q e e ",
"&.=.%.r w = >.|.H.4.4.H.x.4.+.R B 5 y u y y y s s y y t 6 9 D L L L Q Q Q w = X = e e ",
"&.=.$.r q 0 6.@XH.c.g.H.c.g.2.+.L 8 1 > y y p y p y y y 9 M L O.L L Q Y Y = = = = q e "
};
