/* XPM */
static char *_634d9413b0a42f498d82e0a9bbc24d4BYEwAHdzCb5gahMN[] = {
/* columns rows colors chars-per-pixel */
"49 64 243 2 ",
"   c None",
".  c #010301",
"X  c #050C04",
"o  c #0A0D05",
"O  c #051205",
"+  c #0A1404",
"@  c #0B140A",
"#  c #0C1B0C",
"$  c #0C1805",
"%  c #131405",
"&  c #131B0B",
"*  c #181B07",
"=  c #121A13",
"-  c #0D1D11",
";  c #231A0A",
":  c #2E130A",
">  c #0C220D",
",  c #19220B",
"<  c #0E2311",
"1  c #132414",
"2  c #1B2512",
"3  c #1B2C1A",
"4  c #182917",
"5  c #1E311D",
"6  c #28270A",
"7  c #342B0D",
"8  c #35290C",
"9  c #252B15",
"0  c #372B15",
"q  c #24321D",
"w  c #2B351D",
"e  c #3B3313",
"r  c #373517",
"t  c #1B3222",
"y  c #1B2F21",
"u  c #243522",
"i  c #2B3A23",
"p  c #2B3C2A",
"a  c #283726",
"s  c #333C24",
"d  c #333F2B",
"f  c #3C3A24",
"g  c #481F08",
"h  c #4D3D1C",
"j  c #443819",
"k  c #543A1B",
"l  c #4C2C15",
"z  c #473C23",
"x  c #563923",
"c  c #623E25",
"v  c #34412B",
"b  c #3C442C",
"n  c #394027",
"m  c #2C4A3A",
"M  c #274636",
"N  c #334533",
"B  c #3B4631",
"V  c #3D4934",
"C  c #314E3E",
"Z  c #3B4C3A",
"A  c #344837",
"S  c #324B39",
"D  c #59421E",
"F  c #474327",
"G  c #544424",
"H  c #5A4524",
"J  c #5C4B2A",
"K  c #5B4729",
"L  c #434B33",
"P  c #4B4D34",
"I  c #454B38",
"U  c #564C33",
"Y  c #4C523A",
"T  c #485139",
"R  c #54553B",
"E  c #5B593D",
"W  c #585438",
"Q  c #5F502D",
"!  c #624C2A",
"~  c #664929",
"^  c #65512D",
"/  c #6A522E",
"(  c #6F5127",
")  c #74552C",
"_  c #6C5532",
"`  c #635B3D",
"'  c #685737",
"]  c #725A35",
"[  c #7A5E39",
"{  c #765B36",
"}  c #6E482B",
"|  c #7D623B",
" . c #78643D",
".. c #355141",
"X. c #3A5545",
"o. c #3D5849",
"O. c #415B4B",
"+. c #465644",
"@. c #565A42",
"#. c #5B5C44",
"$. c #595946",
"%. c #635E43",
"&. c #605E48",
"*. c #785944",
"=. c #59614B",
"-. c #4C6353",
";. c #4B6355",
":. c #556958",
">. c #576C5B",
",. c #6C6344",
"<. c #64644A",
"1. c #6C664A",
"2. c #676448",
"3. c #736444",
"4. c #746B4C",
"5. c #7B6D4C",
"6. c #796845",
"7. c #7B704E",
"8. c #6C6B52",
"9. c #746C51",
"0. c #7B7253",
"q. c #767158",
"w. c #6C735A",
"e. c #7C7962",
"r. c #6B7562",
"t. c #855935",
"y. c #86663A",
"u. c #956A3A",
"i. c #9C723E",
"p. c #8C6C44",
"a. c #8B6D49",
"s. c #846846",
"d. c #946C44",
"f. c #8C724B",
"g. c #8D7247",
"h. c #947245",
"j. c #9B7446",
"k. c #94734A",
"l. c #9C764A",
"z. c #9D7A4D",
"x. c #977C4F",
"c. c #837654",
"v. c #857856",
"b. c #847B5C",
"n. c #8B7C5B",
"m. c #8B7755",
"M. c #9D7D53",
"N. c #937B53",
"B. c #8E6954",
"V. c #A27A4D",
"C. c #A77849",
"Z. c #A57C51",
"A. c #A87C54",
"S. c #B17958",
"D. c #8B7764",
"F. c #7E8064",
"G. c #8E805D",
"H. c #9B8259",
"J. c #AB8255",
"K. c #A4835A",
"L. c #AC855A",
"P. c #A8865A",
"I. c #B1865A",
"U. c #B48A5D",
"Y. c #B98C5C",
"T. c #B58754",
"R. c #B48651",
"E. c #8C8364",
"W. c #988865",
"Q. c #9A9278",
"!. c #9E906C",
"~. c #A78C66",
"^. c #B38D61",
"/. c #BA8E62",
"(. c #B48868",
"). c #A8936C",
"_. c #B59164",
"`. c #BC9264",
"'. c #B5936A",
"]. c #BB956B",
"[. c #BC996D",
"{. c #AA9775",
"}. c #BC9C73",
"|. c #B39B76",
" X c #BBA37E",
".X c #C4915C",
"XX c #C39464",
"oX c #C49A6C",
"OX c #CA9C6C",
"+X c #C49767",
"@X c #C59D71",
"#X c #CC9E73",
"$X c #D09B70",
"%X c #CCA375",
"&X c #CDA57A",
"*X c #C8A77B",
"=X c #D3A475",
"-X c #D3A67A",
";X c #D4AA7C",
":X c #DBAB7D",
">X c #D8A878",
",X c #D4AA76",
"<X c #BAA685",
"1X c #C7AB86",
"2X c #DCAD82",
"3X c #D5AC82",
"4X c #DBB284",
"5X c #DDB58B",
"6X c #D7B389",
"7X c #D8BA96",
"8X c #CAB28F",
"9X c #E2B385",
"0X c #E2B58A",
"qX c #E4BA8C",
"wX c #E9BB8D",
"eX c #E5BC93",
"rX c #E9BE94",
"tX c #E5BA94",
"yX c #E1AE87",
"uX c #ECC195",
"iX c #EBC39B",
"pX c #E4C29D",
"aX c #F1C79C",
"sX c #ECCAA5",
"dX c #E9CAA7",
"fX c #F3CBA3",
"gX c #F2CEA9",
"hX c #F1C7A2",
"jX c #F4D2AD",
"kX c #F7D1A7",
"lX c #F5D5B3",
"zX c #F6DABB",
"xX c #F9DCBC",
"cX c #F7D8B5",
"vX c #EBD4B4",
"bX c #D9C4A6",
"nX c #F9DEC1",
"mX c #F6DFC1",
"MX c #F9E2C4",
"NX c #F8E6CA",
"BX c #FAEDD3",
"VX c #F8EED6",
"CX c #FAF2DA",
/* pixels */
"                                        +.A +.Z Z p A Z                                           ",
"                                V N p p p Z +.Z +.+.-.A +.+.A A A N p                             ",
"                            4 4 3 t u a p p A Z A N N d Z u t q 1 1 1 1 1 1                       ",
"                        d p d a v v i v B +.V Z T I Z p p 5 1 4 1 @ # @ @ @ &                     ",
"                    d B N a d B L L L b P T L V V d B v q 3 9 5 1 1 < & @ o X . o                 ",
"                = = 4 3 5 a d B P U R R E U Y W Y Y F F r P L q w q 9 2 9 2 = X . X               ",
"            4 = @ @ 1 3 t a T @.=.=.R E 2.<.#.` ' E ` P L b w w n s i q s 4 1 2 @ o X             ",
"          @ @ @ O # 1 u B T T @.=.E =.W E ` ,.3.`  .` P F v n v v n p s F q 2 w 3 @ X o           ",
"        X X @ O O # > i V L <.=.@.E <.1.7.1.3.,.` ` ` =.%.P b s i N B b n v q w w 2 $ O .         ",
"      @ . O O $ > < 5 v V Y E E E ,.` 5.4.6.3.5. .4.%.=.8.T L T b b L Y V b v s r , @ # O         ",
"      X o X $ > 1 w v w b R P W *.,.4.9.4.1.1.4.8.8.8.<.#.@.@.@.T T P n V R L P L 9 & # @ @       ",
"    X X X @ $ 1 3 5 w b E E W ' 1.,.8.8.1.1.8.9.0.4.E #.8.@.@.=.@.=.@.P R 1.Y E F w 4 # - < -     ",
"    X . o 1 > 4 w i L W 7.7.3.4.9.%.$.#.#.2.8.2.4.G.4.1.<.R @.@.E 2.E R 4.=.R E Y s w < 4 # <     ",
"    . X O # > 4 n U 6.W.|.H.6.E E &.%.%.%.2.1.,.2.4.0.G.0.=.8.8.2.8.2.=.7.2.E ` P L d q t 4 #     ",
"  o . @ # $ 4 s ` N.@X5X4X[.H.6.D.m.m.n.0.v.c.m.6.c.G.F.0.8.0.0.q.4.q.7.1.1.5.,.Y L s b 5 1 < >   ",
"  o . = 6 , 9 ' _.4XrXhXhXpXdXvXbX7X1X|.~.{. X|.).!.W.W.G.F.G.F.0.0.7.G.0.4.v.4.W s w p u 3 y O   ",
"  @ 6 e 7 e ] ^.4XuXuXsXkXlXxXMXxXzXlXdX7X<X7X7X8X<X|.F.E.G.!.F.G.G.G.~.G.1.G.0.E n b v a t t @   ",
"  f x H D ] L.=XqXrXuXuXaXhXcXxXxXMXNXBXVXMXdXdXvX<X<XW.G.F.Q.E.!.!.G.!.G.G.0.7.2.E Y B u t < < - ",
"  U } { ) l.=X:XqXtXqXtXiXiXgXcXcXnXMXNXBXVXBXMXvX7X{.{.!.W.<X|.{.|.W.!.W.W.0.0.7.2.E P v 5 < < 1 ",
"  %.] t.p.I.OX%X0XeXqX5XqXrXuXgXjXcXnXMXNXBXNXzXdX7X X|. X{.8X<X|.).!.W.W.H.G.7.0.` 1.2.B 4 < < t ",
"  ' ! | k.Y.`.OX2XtXqXrXrXrXaXfXkXjXcXxXMXmXmXvX7X1X X*X X X<X X).W.!.W.G.G.G.G.0.4.4.<.L q < < t ",
"  ' !  .k.L.U.oX;X0XiXsXgXgXjXcXcXcXcXcXmXmXzXdX6X8X X X|.!. X).W.F.H.G.G.G.7.7.G.G.7.2.Y u < < 4 ",
"  ' { i.V.J.T.OX2XtXaXgXlXcXxXxXxXxXzXxXxXcXjXgX7X*X X[._.H.~.H.H.G.7.7.c.G.G.G.7.F.F.7.#.v 1 < < ",
"  6.H._.].L.J.OX0XtXhXhXgXlXxXnXnXxXMXmXxXzXcXvXjXpX,X@X_.P.H.H.G. .7.7.7.G.7. .7.,.7.7.#.v 3 > < ",
"  N._.@X;X_.J.&XuX5XeXuXrXrXfXlXxXxXnXnXxXzXlXsXsXhXeX5X:XOX_.P.y. .w.7.F. .4.4.3.3.4.,.E b u < - ",
"  f.^.%X4XoXJ.&XuX4X4X4X:X2X0XhXxXNXMXNXnXnXlXgXgXgXhXiXuXuX,X_.G. . .4. .7.7. .6.%.' W W L 4 < < ",
"  6.g.].3XoXk.@XtX-X=X$X#X-X2XtXgXNXBXBXNXNXcXgXsXgXgXaXfXaXuX%XP.G. . .7.G.G. .' [ D.<X|.8.u < < ",
"  ` ] z.`.L.t.l.-X@X+X=X6X7XtXtXsXzXNXnXmXzXlXvXgXfXhXaXkXfXaX:XP.H. .7.F.H.H.g.a.1XmXbX<X(.P 3 3 ",
"  ' K ) l.l.~ { ].#X5XdXdX7XpXdXvXNXBXmXvXdXpXeXiXiXuXiXaXkXkXwX_.H.c.G.y.H._.*XrX5X*.: : l B.3 y ",
"  P z k / a.H h p.'.1X1X).s.3.*.B.N.(.1X7X7X6X3X6XeXuXiXaXkXaXuX@XP.f.7.7.H.iXcX$Xx g { } g A.P   ",
"i f f e 7 H ^ j e j l 0 ; @ o % % * 0 U *.M.A.^.&XqXuXiXkXuXqXuX*XK.7. .y.[.iX4Xd.l } yX3Xt.l.b.  ",
"9 2 = = q z U 7 % X . . . . & z Z u @ @ & 0 ! k.@X5XuXuXkX9X9XuX,XP.g.] H.,X,XOXI.(.=XrXhX$XS.'.  ",
"  = = y = = f H 6 . . . . o 0 ,.b.-.+.8.n.6.a.}.5XiXkXkXkXkXaXuX:X_.g. .T.%X+XC.} x B.S.>XrX2X(.  ",
"    -.$.y = ! K.a.l o X % * 8 G *.c.D.W.[.pXsXsXjXcXkXkXkXaXaXwX:XY.h.i..XqXzXpXt.: : c S.aXtX~.  ",
"    I d = 0 L.5XpX'.] j 7 8 e l j z D | *XvXnXnXzXcXkXfXaXaXwX9X,XXXR.R.OXsXVXVXA.j.t.u.:XhXwX4.  ",
"      z 2 W %XdXnXeXoX~.a.] ~ ! ~ _ f.}.pXzXNXMXxXkXaXuXaXwX:X>XOX.XY.XX:XjXmXzXS..XpX2XaXrX3XU   ",
"      <Xr s.tXMXmXsX0X6X1X@XK.a.B.~.*XtXjXzXxXcXkXaXrX9X9X2X>XOX+XY.T.OX9XaXfXuX$XyXcXlXdX#X{.i   ",
"      w.z }.lXCXNXlXsX0X5X3X3X*X].oX3XeXhXhXaXuXqXqX:X>X=X=XOXXX.XY.+X>XuXuXwX:XhXnXNXhX+X0Xb.q   ",
"      F *.eXNXCXMXcXsXeXrX4X3X2X5X2X2X0X0XqXyX-X=XOX%XOXOXXXY./.`..X+X:X9XwX:X:XlXnXcXgXgX7XP u   ",
"      z ].cXBXxXrXtX0X4X2X2XyX2X0X0X2X:X-X=XoX/.XX`._.Y.`.`.`./.Y.`.%X:XwXwXwXuXxXcXcXMXhXD.s i   ",
"      3.6XMXNXlXdXpXtX2XXXXX-X2X2X2X2X-XOX/.I.J.I.Y.I.U.U.U.Y./..X+X%X:X9X9XaXxXxXnXnXtXk.K s p   ",
"      c.4XMXVXNXCXBXnXhX#XS.+X$X=X=X$X+X(.A.Z.C.V.R.J.J.U.U./.Y.XX+X,X:X:X:XaXiXtXyX(.} G G f i   ",
"      [ ^.sXxXMXxXnXnXcXtX+X(.`.XX/././.A.Z.C.Z.V.V.V.V.L.U.U.U.`.+X%X;X>XyX].k l l ; 8 H G r n   ",
"        G [ s.6.s.B.(.2X2X#XXXS.(.I.I.A.Z.Z.Z.Z.l.j.z.V.J.I.U.U.`.[.OX%X-X=Xa.o . . 6 x J D F P   ",
"        $.r ; % . o : k V.$X=X].U.I.J.L.Z.Z.C.z.j.z.k.x.J.J.P.R.Y.`.oX*X,XOXp.6 * 8 H / K h D E   ",
"          E F 2 % ; 8 l A.2X-X%X+XU.L.A.J.A.Z.V.z.j.j.z.i.H.R.R.J.P._.*XOX`.p. .*.*.[ ] ( D  .E.  ",
"          9.z 6 r K { A.-X2X3X:X-X@XU.J.J.J.Z.l.j.j.i.h.i.z.J.J.J.J.^.`._.R.p.].oXL.k.y.{ ) u.!.  ",
"          1.w 9 z s.N.].-X3X-X*X3X3X#X^.L.J.V.V.z.z.h.j.j.z.j.j.H.K.P.U.P.H.h.&X-X`.k.g.y.t.g.{.  ",
"          &.z U s.(.~.M.(.~.L.'.[.%X%X]./.I.l.j.j.j.z.l.j.h.h.H.h.G.H.H.H.u.H.*X*XR.P.i.u.| i.[.  ",
"          q.&._ / s.[.[.M.a.[ 6.N.`.#X@X[.U.J.j.z.J.j.j.j.h.y.h.i.g.i.i.y.| P.;X_._._.z.i.u.i.}.<X",
"          e.D.W 6 8 l { s.[ J G ^ H.oX@X].L.J.J.V.V.l.j.u.y.y. . . . . .( ) R.[._.,X.XR.i.i.u.).<X",
"          $.$.a o o X & ; 0 6 0 F ] K.`._.J.z.l.V.z.h.h.|  .) ] ^ ' ^ D J ) P._.,X,XOX.Xi.u.y.[.<X",
"            I = o : 0 ^ B.D.B._ G H | H.J.H.h.h.k.k.g.|  .] ^ J G G F D D y.J.,X6X4X,XY.C.i.i._.1X",
"            D.0 x c s.B.B.A.S.A.| ! ^ | h.g.p.y.h.g.y.) ^ J G e r r 7 7 Q y.oX4XqX4X,X.XR.R.R..X;X",
"            Q.%.z c K c c } *.k.p.^ H _ | |  .| | { _ J G r 6 , 6 6 6 D ( R.,XqXaX9X,X,X`.Y.+X,XqX",
"              q.z a r 0 0 z K { _ H H ^ ] ) _  .] ! H F r , > $ > , 6 D i.OXqXkXqX X!.!.w.:.w.F.E.",
"              q.z 9 6 6 7 e G G K H H ! _ _ ^ ^ J G r 6 + X X O $ , F t.R.oX<XQ.r.>.>.>.>.O...o.o.",
"                f 6 e z J ^ ] ] / / / ] _ ! J G j e , O . . . X , e ) h.P.F.>.>.>.O.;.-.o.;.;.o...",
"                U z *.K.%X1X*X'.Z.s._ / J G j 7 , > X X . . X $ 7 D t.i.8.>.>.>.;.O.........m M m ",
"                U x [ ~.*X3X6X&XL.a.] K j w , $ O X . . . . $ 6 h ( ) #.>.>.>.-.;.;.o...m m C m ..",
"                F j G [ k.^.^.K.f.] G w $ X X O X . . . . O * e D Q T -.:.:.>.-.;.o...............",
"                  6 7 r G _ ' K r 6 & o X X # > O . . . X $ 6 g F S :.-.O.O.o.o.....m ..m M ....M ",
"                  2 & , * * & & X . . . . . O > . . . . X * 6 q p O.-.-.o.o.C X.m m ......M M M m ",
"                      & O . . . .       o . X # X . . . O > , u -.:.-.O.o.o.C C ..........M M M .."
};
