/* XPM */
static char *c06cd671605b42d4c073ec5cb3e2e0d22rY5g8a9pLctXwe1[] = {
/* columns rows colors chars-per-pixel */
"49 64 243 2 ",
"   c None",
".  c #010301",
"X  c #050C04",
"o  c #0A0D05",
"O  c #051205",
"+  c #0A1404",
"@  c #0B140A",
"#  c #0C1B0C",
"$  c #0C1805",
"%  c #131405",
"&  c #131B0B",
"*  c #181B07",
"=  c #121A13",
"-  c #0D1D11",
";  c #231A0A",
":  c #2E130A",
">  c #0C220D",
",  c #19220B",
"<  c #0E2311",
"1  c #132414",
"2  c #1B2512",
"3  c #1B2C1A",
"4  c #182917",
"5  c #1E311D",
"6  c #28270A",
"7  c #342B0D",
"8  c #35290C",
"9  c #252B15",
"0  c #372B15",
"q  c #24321D",
"w  c #2B351D",
"e  c #3B3313",
"r  c #373517",
"t  c #1B3222",
"y  c #1B2F21",
"u  c #243522",
"i  c #2B3A23",
"p  c #2B3C2A",
"a  c #283726",
"s  c #333C24",
"d  c #333F2B",
"f  c #3C3A24",
"g  c #481F08",
"h  c #4D3D1C",
"j  c #443819",
"k  c #543A1B",
"l  c #4C2C15",
"z  c #473C23",
"x  c #563923",
"c  c #623E25",
"v  c #34412B",
"b  c #3C442C",
"n  c #394027",
"m  c #2C4A3A",
"M  c #274636",
"N  c #334533",
"B  c #3B4631",
"V  c #3D4934",
"C  c #314E3E",
"Z  c #3B4C3A",
"A  c #344837",
"S  c #324B39",
"D  c #59421E",
"F  c #474327",
"G  c #544424",
"H  c #5A4524",
"J  c #5C4B2A",
"K  c #5B4729",
"L  c #434B33",
"P  c #4B4D34",
"I  c #454B38",
"U  c #564C33",
"Y  c #4C523A",
"T  c #485139",
"R  c #54553B",
"E  c #5B593D",
"W  c #585438",
"Q  c #5F502D",
"!  c #624C2A",
"~  c #664929",
"^  c #65512D",
"/  c #6A522E",
"(  c #6F5127",
")  c #74552C",
"_  c #6C5532",
"`  c #635B3D",
"'  c #685737",
"]  c #725A35",
"[  c #7A5E39",
"{  c #765B36",
"}  c #6E482B",
"|  c #7D623B",
" . c #78643D",
".. c #355141",
"X. c #3A5545",
"o. c #3D5849",
"O. c #415B4B",
"+. c #465644",
"@. c #565A42",
"#. c #5B5C44",
"$. c #595946",
"%. c #635E43",
"&. c #605E48",
"*. c #785944",
"=. c #59614B",
"-. c #4C6353",
";. c #4B6355",
":. c #556958",
">. c #576C5B",
",. c #6C6344",
"<. c #64644A",
"1. c #6C664A",
"2. c #676448",
"3. c #736444",
"4. c #746B4C",
"5. c #7B6D4C",
"6. c #796845",
"7. c #7B704E",
"8. c #6C6B52",
"9. c #746C51",
"0. c #7B7253",
"q. c #767158",
"w. c #6C735A",
"e. c #7C7962",
"r. c #6B7562",
"t. c #855935",
"y. c #86663A",
"u. c #956A3A",
"i. c #9C723E",
"p. c #8C6C44",
"a. c #8B6D49",
"s. c #846846",
"d. c #946C44",
"f. c #8C724B",
"g. c #8D7247",
"h. c #947245",
"j. c #9B7446",
"k. c #94734A",
"l. c #9C764A",
"z. c #9D7A4D",
"x. c #977C4F",
"c. c #837654",
"v. c #857856",
"b. c #847B5C",
"n. c #8B7C5B",
"m. c #8B7755",
"M. c #9D7D53",
"N. c #937B53",
"B. c #8E6954",
"V. c #A27A4D",
"C. c #A77849",
"Z. c #A57C51",
"A. c #A87C54",
"S. c #B17958",
"D. c #8B7764",
"F. c #7E8064",
"G. c #8E805D",
"H. c #9B8259",
"J. c #AB8255",
"K. c #A4835A",
"L. c #AC855A",
"P. c #A8865A",
"I. c #B1865A",
"U. c #B48A5D",
"Y. c #B98C5C",
"T. c #B58754",
"R. c #B48651",
"E. c #8C8364",
"W. c #988865",
"Q. c #9A9278",
"!. c #9E906C",
"~. c #A78C66",
"^. c #B38D61",
"/. c #BA8E62",
"(. c #B48868",
"). c #A8936C",
"_. c #B59164",
"`. c #BC9264",
"'. c #B5936A",
"]. c #BB956B",
"[. c #BC996D",
"{. c #AA9775",
"}. c #BC9C73",
"|. c #B39B76",
" X c #BBA37E",
".X c #C4915C",
"XX c #C39464",
"oX c #C49A6C",
"OX c #CA9C6C",
"+X c #C49767",
"@X c #C59D71",
"#X c #CC9E73",
"$X c #D09B70",
"%X c #CCA375",
"&X c #CDA57A",
"*X c #C8A77B",
"=X c #D3A475",
"-X c #D3A67A",
";X c #D4AA7C",
":X c #DBAB7D",
">X c #D8A878",
",X c #D4AA76",
"<X c #BAA685",
"1X c #C7AB86",
"2X c #DCAD82",
"3X c #D5AC82",
"4X c #DBB284",
"5X c #DDB58B",
"6X c #D7B389",
"7X c #D8BA96",
"8X c #CAB28F",
"9X c #E2B385",
"0X c #E2B58A",
"qX c #E4BA8C",
"wX c #E9BB8D",
"eX c #E5BC93",
"rX c #E9BE94",
"tX c #E5BA94",
"yX c #E1AE87",
"uX c #ECC195",
"iX c #EBC39B",
"pX c #E4C29D",
"aX c #F1C79C",
"sX c #ECCAA5",
"dX c #E9CAA7",
"fX c #F3CBA3",
"gX c #F2CEA9",
"hX c #F1C7A2",
"jX c #F4D2AD",
"kX c #F7D1A7",
"lX c #F5D5B3",
"zX c #F6DABB",
"xX c #F9DCBC",
"cX c #F7D8B5",
"vX c #EBD4B4",
"bX c #D9C4A6",
"nX c #F9DEC1",
"mX c #F6DFC1",
"MX c #F9E2C4",
"NX c #F8E6CA",
"BX c #FAEDD3",
"VX c #F8EED6",
"CX c #FAF2DA",
/* pixels */
"                                          Z B M I I X.Z X.                                        ",
"                            p A N N S +.+.Z -.O.Z Z +.Z p p a N V                                 ",
"                      = 1 1 1 = 4 5 u u Z M N N B Z Z p p u u q 3 4 4                             ",
"                    # # o # # @ 1 4 1 5 p p V I T Z Z +.B v p p d u d p d                         ",
"                X X X + @ # , 1 4 3 9 4 q v B n B V V T T B L P V B v a N B d                     ",
"              X . X & 2 9 4 9 q w q L P s F F W Y R U W E W W Y P V v u 3 3 y = =                 ",
"            X o @ 3 = 3 i w i s n w w n P P ` ` W E #.2.2.E R =.#.@.T i q 3 1 @ @ = y             ",
"          X X @ 9 w 2 q F s p v v n n v F P ` `  . .` ` E W =.E =.@.+.I B i 1 # o @ @ @           ",
"        X X @ 6 w w q d d b B b q v b P =.E %.` %.3.3.1.9.1.%.` @.#.<.V L i < $ O O # X X         ",
"        X # $ 2 r s v b F Y B B b T L T 8.=.2.1.%.6.4.6.4.4.3.%.` #.@.T V v 9 4 > O O O . o       ",
"      @ @ # > 9 L P L R V b P T Y @.@.@.=.<.w.4.6.9.1.1.4.9.4.,.%.W U Y b i i u 1 > @ X X X       ",
"    - < # # 2 w F @.Y <.R T @.$.@.=.@.@.4.E E 4.0.q.1.1.1.8.9.%.3.' W ` R b i q 5 1 # @ @ . o     ",
"    1 - 4 > w n Y E R ` 9.R @.<.@.@.@.Y 2.8.5.b.9.1.1.1.&.#.#.&.9.4.1.c.6.W L i w 4 > > + . .     ",
"    - 4 5 5 v V Y ` E ,.9.2.<.8.<.q.8.<.q.b.v.4.%.1.1.&.&.%.%.%.E E 4.M.|.M.3.W n 4 > > + X .     ",
"  < < 1 5 N v b U  .4.1.4.7.9.1.q.0.q.8.0.b.D.b.5.m.c.v.q.n.v.v.n.6.M.].5X0X@XN.' s , $ # o . @   ",
"  O y 4 5 v w v R 4.G.1.0.G.7.0.b.b.E.b.n.W.W.~.~.'.<X{.).|.1X7XdXvXdXdXhXsXtX5X_.` w , , % X o   ",
"  @ t t a v b b @.7.G. .G.!.F.G.G.0.!.F.G.G.{.<X<XbX7X<X7XdXlXxXnXMXxXlXkXfXuXrX3X^.] e 7 7 ; @   ",
"- < < t u V Y R 2.7.F.7.G.!.H.!.!.G.!.F.G.E.<X8XvXdXdXNXVXVXNXmXzXxXcXhXaXiXuXrX0X=X^.] D ~ G f   ",
"1 < < t v F E 2.7.7.F.H.W.!.W.|.|.|.<XE.Q.|.{.7XvXmXNXBXVXNXMXmXcXcXgXaXiXeXeXeXqX>X=Xz.) { / Q   ",
"t < < 3 B <.4.` 7.0.G.H.H.!.!.).|.<X8X X X{.<X7XdXzXNXBXNXMXmXcXjXfXuXeXqX0X0XeX0X=XOXL.u.[ _ W   ",
"t < < 5 L 2.9.7.0.F.G.G.W.W.!.W.). X1X X X X X8X7XvXnXMXnXxXcXjXkXfXiXrXrXeXeXqX4XOX`.Y.x.| ^ '   ",
"3 < < u R 2.9.G.G.0.7.G.G.G.H.c.H.). X!.|. X|.6X6XvXzXxXnXxXcXcXcXcXlXjXgXsXiX0X;XoXU.L.g. .! '   ",
"< < < v =.7.0.v.0.7.G.G.7.7.c.G.G.H.~.P.).[.}.*X7XgXlXcXzXxXnXxXcXxXcXcXjXgXiXeX:XOXT.A.J.u.{ '   ",
"< > 4 v E 0.7.4.7. .c.c.G.7.7.4.G.H.H.P._.@X%XiXgXlXlXzXzXnXnXnXnXnXxXlXjXsXhXeXqXOXJ.I.`.U.H.6.  ",
"> < t V $.%.5.,.4.5.6.4.0.7.5. .y.H._.OX;XqXuXsXsXdXvXcXnXnXnXnXxXcXhXuXrXrXtX0XrX-XV.^.:X@X_.N.  ",
"> > 3 V W Y ' ] 3.3.6.6.0.4. .6.G._.,XuXiXaXfXsXgXkXcXxXnXnXNXmXxXhX0X:X:X2X2X5XpX-XJ.oX:X%X_.f.  ",
"< < q 1.<X<Xm.*.' 5.n.G.7. .6.g.P.OXuXuXkXaXsXfXsXgXcXNXBXBXVXmXlXeX2X>X#X$X=X-XeX[.k.oX:X`.g. .  ",
"3 4 P '.<XbXmX1Xg.p.H.H.7.5.7.H.P.4XfXfXkXaXaXfXgXgXlXzXnXNXnXzXhXtXeX7X5X-XXX#X-Xz.y.L._.H. .`   ",
"5 4 B.l : : { yXaX1X_.H.c.v.c.K._.uXfXkXaXuXuXpXpXuXpXsXlXMXVXNXvXdXpX7XdXdX5X#X].{ ~ k.l.) K W   ",
"  I S.g } t.g x @XcXpXK.6.5.v.P.[.uXkXkXkXuXuXuX6X;X6X7X7X1X(.n.a.3.*.s.).1X1X'.s.k ~ p./ x z U   ",
"  b.l.t.:X2X} l u.5XiXoXy.3.s.K.,XuXuXeXaXaXuX4X*X_.H.H. .K 0 * % % o % * 0 j l e j ! K 0 e r f a ",
"  '.S.-XfXwX-X(.L.OX%X-Xz. .f.~.,XuX:X9XkXuXuXqX@Xh.^ 7 & + O a I d = . . . . X % 7 U z 9 1 = 3 9 ",
"  |.yXhX:XC.B.x ) J.+X,XY. .g.Y.:XuXaXkXkXkXgXaX5X}.a.6.D.r.+.-.D.1.0 o X . . X 6 K f = = y @ 3   ",
"  S.wXrXS.c : : t.7XzX4X.Xh.u.Y.:XwXaXaXkXjXjXjXjXsXsX7X}.M.B.c.1.G 8 * % X o 0 a.K.~ = y +.=.    ",
"  9.yXhX>Xu.t.C.V.BXCXfXOXT.R.OX>X:XwXaXfXaXkXcXcXmXmXvX*X[ H h j l 0 8 8 j { /.tX5X(.w = d I     ",
"  Y 3XhXrXyXpX.XA.cXMXkX:X+XY..X$X>X9XwXuXaXaXjXxXMXNXzXdX@Xa._ ~ ! ! ] a.~.@XtXnXsX#XQ 9 z       ",
"  i |.#XsXlXcXyX$XuXfXfX:XOXT.Y..XOX>X:X9X0XrXaXkXcXxXcXvXeX*X~.a.a.K.}.1X6X0XsXmXMXqXs.w Q.      ",
"  t b.7XXXgXnXnXhXyXwXrXuX,XOXT..XOXOX,X=X>X:X0XwXiXfXfXhXtX2X[.].*X3X2X0X0XiXlXNXCXlX}.z q.      ",
"  u U 7XgXgXlXxXcX:X:XwX9X:X+X`.`.Y..XXXOXOX@X#X=X>X2X0X0XyX2X2X5X2X:X5XeXrXsXcXMXCXNXeX3.F       ",
"  p d B.hXMXcXcXxXrX9XwXuX4XOX`.Y.`././././././.XX/.oX=X2X2X2X0X0X2X4X4X2X4X0XtXiXzXBXcX].z       ",
"  i d K k.tXnXMXnXxXhX9XyX4X=XXX.X/.Y.U.^.U.I.Y.I.J.T./.OX=X2X2X2X2X>XXXXX3XtXpXdXjXNXnX6X3.      ",
"  s f G z ~ (.yX0XtXaXyX:X:X%X+X.XY.^.U.U.J.A.J.A.V.Z.J.(.+X$X=X=X$XXXI.$XhXnXBXCXBXCXnX4Xc.      ",
"  d r G H 8 ; l l x ].9X:X;X%XOX_.Y.U.U.J.V.V.V.V.V.V.V.A.U./.XXXX`.Y.XXtXlXnXMXmXnXmXdX^.*.      ",
"  P G G ~ H ; . . o s.=X>XOXOX+X`.U.U.I.J.V.V.l.C.Z.Z.Z.Z.J.I.I.(.S.].$XyX3X(.a.*.s.s.{ K         ",
"  E D D K / H 8 * ; d.OX,X*XoX'.Y.U.I.J.V.H.z.j.l.V.V.Z.A.J.J.I.U./.=X-Xl.c : o . % 6 r $.        ",
"  G.] D / ] { { y. .a.].OX*X_.P.J.T.J.V.l.j.j.j.l.l.V.Z.J.A.L.U.+X=X-X2XA.l 8 ; % ; z $.          ",
"  {.p.) { y.k.L.oX[.h.P.`.`.U.P.K.V.V.V.j.h.h.j.l.V.V.J.L.J.U.@X3X3X3X2X$XA.*.K r 6 F 9.          ",
"  {.g.t.y.h.k._.&X&Xh.z.P.U.T.K.H.V.l.V.l.j.h.j.V.V.V.J.I.U.@X;X3X#X-X3X-X].N.6.F 6 w 1.          ",
"  |.u.y.u.x.P.R.*X,XH.u.H.H.J.H.H.H.y.x.i.H.z.l.j.j.J.T.^.+X%X%X[._.P.^.~.Z.~.~.s.K z $.          ",
"<X Xu.u.i.i._._._.,XP. .y.y.x.y.y.i.y.i.i.i.i.J.V.z.H.U.[.oX%X'.N.6. .f.M.].].B._ _ %.r.          ",
" X_.u.u.R.R..X,X_.[.U.) ) ]  . . . .y.y.y.H.i.j.J.V.V.T.].@XoXH._ G Q *.a.{ z : 9 $.D.e.          ",
" X_.y.u.i..XOX,X,X).R.) H H Q ) (  .] {  .i.h.H.l.z.z.P.U.].K.] F 7 ; 0 ; % o X o 0 $.$.          ",
" X[.i.i.z..X,X,X;X,XJ.| D F D F G H ^ ]  .| g.x.h.h.l.H.J.z. .H G ' B.D.B.U l ; o = z             ",
",X+XR.R..X.X,X9XqX4XoXi.( e e 7 e e F J ^ ] y.y.k.y.y.g.k.| ! ! [ A.S.S.l.B.*.c x z D.            ",
"qX,X[.R..X,X,XqXsXeX:XR.( D 6 6 , 6 6 r G J _ | |  .{  . ._ H / a.k.[ } c c K x x $.<X            ",
"E.F.F.-.F.F.!. X7XsX9X+Xy.D 7 , > $ > , e F D J ]  .] ) ] ^ H H _ ] G z 0 0 f 0 f e.              ",
"o.O.X.o.-.>.F.>.F.Q.<X*XP.y.D , O O X . $ 6 r G ^ ^ ^ _ ^ ! H H H H G r 6 8 6 6 F w.              ",
"..O.O.-.o.-.o.O.-.:.>.F.P.j.( 7 * X . . X $ , 7 j G J ^ _ ] / / / ] { ^ J F 7 6 F                 ",
"M M C C C o.X.o.-.>.>.:.w.i.y.D 7 $ X . . . X $ , r j G ! _ _ s.Z.'.&X1X@XK.] F Y                 ",
"C m C m C ..o.-.-.-.:.:.:.=.) ( k 6 + . . . . X O $ , 9 j K ] g.~.#X6X2X&X^.{ H U                 ",
"....C ..C X.C O.-.-.>.>.:.-.Y Q D 7 , O . . . . O O X O * w G _ f.K.^.^.k.*.K j z                 ",
"M ..C m C C C m ..o.o.O.O.-.:.Z F e 6 % . . . . O > # . . X & 6 r K ' ' G r 6 6                   ",
"m M M m C X.C C C X.C o.o.-.-.O.M 6 6 * X . . . X > $ . . . . . o * * * * , & 2                   ",
"C m M M C C C X.C m C o.X.o.-.>.-.q , % X . . . . # X . o       . . . . O 1                       "
};
