/* XPM */
static char *_daf6d3573314b5fca463d59742cb63d6LlKc879ht5OVaer[] = {
/* columns rows colors chars-per-pixel */
"64 64 256 2 ",
"   c black",
".  c #010101",
"X  c #020202",
"o  c gray1",
"O  c #040404",
"+  c gray2",
"@  c #060606",
"#  c #070707",
"$  c gray3",
"%  c #090909",
"&  c gray4",
"*  c #0B0B0B",
"=  c #0C0C0C",
"-  c gray5",
";  c #0E0E0E",
":  c gray6",
">  c #101010",
",  c #111111",
"<  c gray7",
"1  c #131313",
"2  c gray8",
"3  c #151515",
"4  c #161616",
"5  c gray9",
"6  c #181818",
"7  c #191919",
"8  c gray10",
"9  c #1B1B1B",
"0  c gray11",
"q  c #1D1D1D",
"w  c #1E1E1E",
"e  c gray12",
"r  c #202020",
"t  c gray13",
"y  c #222222",
"u  c #232323",
"i  c gray14",
"p  c #252525",
"a  c gray15",
"s  c #272727",
"d  c #282828",
"f  c gray16",
"g  c #2A2A2A",
"h  c gray17",
"j  c #2C2C2C",
"k  c #2D2D2D",
"l  c gray18",
"z  c #2F2F2F",
"x  c gray19",
"c  c #313131",
"v  c #323232",
"b  c gray20",
"n  c #343434",
"m  c #353535",
"M  c gray21",
"N  c #373737",
"B  c gray22",
"V  c #393939",
"C  c #3A3A3A",
"Z  c gray23",
"A  c #3C3C3C",
"S  c gray24",
"D  c #3E3E3E",
"F  c #3F3F3F",
"G  c gray25",
"H  c #414141",
"J  c gray26",
"K  c #434343",
"L  c #444444",
"P  c gray27",
"I  c #464646",
"U  c gray28",
"Y  c #484848",
"T  c #494949",
"R  c gray29",
"E  c #4B4B4B",
"W  c #4C4C4C",
"Q  c gray30",
"!  c #4E4E4E",
"~  c gray31",
"^  c #505050",
"/  c #515151",
"(  c gray32",
")  c #535353",
"_  c gray33",
"`  c #555555",
"'  c #565656",
"]  c gray34",
"[  c #585858",
"{  c gray35",
"}  c #5A5A5A",
"|  c #5B5B5B",
" . c gray36",
".. c #5D5D5D",
"X. c gray37",
"o. c #5F5F5F",
"O. c #606060",
"+. c gray38",
"@. c #626262",
"#. c gray39",
"$. c #646464",
"%. c #656565",
"&. c gray40",
"*. c #676767",
"=. c #686868",
"-. c DimGray",
";. c #6A6A6A",
":. c gray42",
">. c #6C6C6C",
",. c #6D6D6D",
"<. c gray43",
"1. c #6F6F6F",
"2. c gray44",
"3. c #717171",
"4. c #727272",
"5. c gray45",
"6. c #747474",
"7. c gray46",
"8. c #767676",
"9. c #777777",
"0. c gray47",
"q. c #797979",
"w. c gray48",
"e. c #7B7B7B",
"r. c #7C7C7C",
"t. c gray49",
"y. c #7E7E7E",
"u. c gray50",
"i. c #808080",
"p. c #818181",
"a. c gray51",
"s. c #838383",
"d. c #848484",
"f. c gray52",
"g. c #868686",
"h. c gray53",
"j. c #888888",
"k. c #898989",
"l. c gray54",
"z. c #8B8B8B",
"x. c gray55",
"c. c #8D8D8D",
"v. c #8E8E8E",
"b. c gray56",
"n. c #909090",
"m. c gray57",
"M. c #929292",
"N. c #939393",
"B. c gray58",
"V. c #959595",
"C. c gray59",
"Z. c #979797",
"A. c #989898",
"S. c gray60",
"D. c #9A9A9A",
"F. c #9B9B9B",
"G. c gray61",
"H. c #9D9D9D",
"J. c gray62",
"K. c #9F9F9F",
"L. c #A0A0A0",
"P. c gray63",
"I. c #A2A2A2",
"U. c gray64",
"Y. c #A4A4A4",
"T. c #A5A5A5",
"R. c gray65",
"E. c #A7A7A7",
"W. c gray66",
"Q. c #A9A9A9",
"!. c #AAAAAA",
"~. c gray67",
"^. c #ACACAC",
"/. c gray68",
"(. c #AEAEAE",
"). c #AFAFAF",
"_. c gray69",
"`. c #B1B1B1",
"'. c #B2B2B2",
"]. c gray70",
"[. c #B4B4B4",
"{. c gray71",
"}. c #B6B6B6",
"|. c #B7B7B7",
" X c gray72",
".X c #B9B9B9",
"XX c gray73",
"oX c #BBBBBB",
"OX c #BCBCBC",
"+X c gray74",
"@X c gray",
"#X c gray75",
"$X c #C0C0C0",
"%X c #C1C1C1",
"&X c gray76",
"*X c #C3C3C3",
"=X c gray77",
"-X c #C5C5C5",
";X c #C6C6C6",
":X c gray78",
">X c #C8C8C8",
",X c gray79",
"<X c #CACACA",
"1X c #CBCBCB",
"2X c gray80",
"3X c #CDCDCD",
"4X c #CECECE",
"5X c gray81",
"6X c #D0D0D0",
"7X c gray82",
"8X c #D2D2D2",
"9X c LightGray",
"0X c gray83",
"qX c #D5D5D5",
"wX c gray84",
"eX c #D7D7D7",
"rX c #D8D8D8",
"tX c gray85",
"yX c #DADADA",
"uX c gray86",
"iX c gainsboro",
"pX c #DDDDDD",
"aX c gray87",
"sX c #DFDFDF",
"dX c gray88",
"fX c #E1E1E1",
"gX c #E2E2E2",
"hX c gray89",
"jX c #E4E4E4",
"kX c gray90",
"lX c #E6E6E6",
"zX c #E7E7E7",
"xX c gray91",
"cX c #E9E9E9",
"vX c #EAEAEA",
"bX c gray92",
"nX c #ECECEC",
"mX c gray93",
"MX c #EEEEEE",
"NX c #EFEFEF",
"BX c gray94",
"VX c #F1F1F1",
"CX c gray95",
"ZX c #F3F3F3",
"AX c #F4F4F4",
"SX c gray96",
"DX c #F6F6F6",
"FX c gray97",
"GX c #F8F8F8",
"HX c #F9F9F9",
"JX c gray98",
"KX c #FBFBFB",
"LX c gray99",
"PX c #FDFDFD",
"IX c #FEFEFE",
"UX c white",
/* pixels */
"j.c.k.s.;.3.w.0.6.=.;.e.k.6.' d.k.a.g.y.j.N...r.d.g.M.Z.T.R.D.7.=.8.w.e.s.k.n.J.] h.A.f.N.h.j.r.y.=.a.a.s.8.9.0.v.-.d.i.l.J.e.d.",
"N.D.T.N.O.G.U.T.J.I.P.T.%X<.i.b.I.K.H.~.!.S.X.D.h.f.t.b._.}.B...t.8.j.l.d.h.Y.P.@.f.~.P.F.f.I.~.j.a.m.l.v.U.L.S.H.q.j.(._.Q.c.K.",
"m.].F.M.) B.B.B.M.H.K.Y.'.| 8.b.Z.L.n.B.W.B...N.C.s.v.m.y.].n.H 9.9.y.n.j.j.A.Z.%.w.g.t.9.7.f.g.0.F.F.F.L.Q.A.I.U.0.h.D.k.b.A.T.",
"x..XP.I.[ M.N.x.z.x.l.L.).>.0.N.k.h.p.B.#Xs.^ x.M.}.R.R.y.'.R.T 1.g.b.K.T.Y.L.c.-.6.y.S.l.Y.R.J.a.c.g.c.d.F.(.`.K.;.g.N.^._.T.^.",
"W.H.!.].+.S.F.B.P.K.F.D.~.( 9.l.l.!.|.).XXu.&.U.~.(.}.oXY.+XW. .K.U.@X X/.(.OXz.#.`.[.Q.^.9X=X2XJ.Q.'.G.B.Y.U.(.%X:.Z.@X[.Y.|.:X",
"%.q.B.m.' b.)./.L.K.[.J.E.O.,.i.!.^.Y.L.F.i.#.k.f.f.s.i.u.v.E.K B.N.s.8.>.5.w.l.%.7.[ Q :.$._ a.0.$.U.R.Z.R.G.G.E.o.O.v.t.v.#X*X",
">.$.[ 4.@.` ` | E R *.O.7.;.W ^ W ( +.X._ *.| %.2.X.X.o.<.<.3.9.2.:.q.q.=.5.2.2.b.-.8.c.A.n.p.:.w.O.:.3.=...O.,.V.J.p.t.q.9.q.k.",
",.k./.W.m.F.z.f.h.N.n.i.V.L.~.!.^.1.8.g.x.n.f.j.n.G.L.D.y.F.V.D.R.,XXX| J.L.Z.P.A.z.v.N.Z.J.S.D.Z.'./..Xn.1.~.{.`.H.H.L.I.U.U.).",
"| f.n.n.M.S.k.g.j.e.y.g.x.x.T.V.E.X.o.f.f.r.8.5.N.E.9.w.Z.A.F.I.B.E.+XL n.W.l.Z.k.f.S.j.h.V.s.v.v.h.b.c.0.$.8XZ.B.h.l.1.0.T.S.Q.",
"} S.d.z.Z.j.H.B.l.x.c.m.H.I.T.m.).o.M.n.v.x.b.b./.U.n.C.$X;XH.G.D.V._.o.x.U.N.C.k.N.G.[.T._.H.(./.H.J.<.m.&.(.(.E.R.H.#.0.`.g.B.",
"6.W.S.L.(.U.L.I.P.F.U.oX-X;X+X_.1X1.U.N.G.Q.E.x.L.Z.I.W.&X*XI._.R.'.#X| C.K.P.L.I.)./.^.(.(.[.R.!.Q.U.N.D._ J.G.`.+X.X#.&.[.J.S.",
"e.~.H.+X$X{.%X,X;X'..X8X,X+X_.Q.>X1.y.H./._.(.S.B.I._..X.XQ.W.{.oXXX^.@.E.Z.Z.G.A.^.S.S.G._.[.H.M.Y.l.S.T.*.Q.U.I.].8X>.#.`.V.l.",
"2.X.( ,.0.6.r.w.c.d.q.p.k.e.,.>.,.%.>.3.&.-.:.#.%.$.' ' ' ) O.@. .&.3.@.X. .,.:.:.1.$. .X.o.*.2.9.;.7.1.v.7.y.-.{ 8.7.K ] 2.=.{ ",
"D.5.m.b.i.*.q.d.3.x.g.i.M.$.2.I.P.k.z.D.Q.Z.0.z.b.x.l.g.e.r.$...v.k.H.U.Z.P.(.i.&.y.C.k.A.l.G. Xl.r.G.j.n.Y.F.D.P.B.j.z.n.f.p.w.",
"x.h.l.(.F.>.E.Z.Q.W.C.C.+X0.d.R.T.I.R.I.R.V.2.m.k.z.Z.Z.x.J.h.M.%X!.}.oX@XY./.b./ F.)..X[.@X~..X2.B.^.S.A.J.j.K.'.,.P.`.S.Q.*.i.",
"j.c.e.!.k.>.E.J.J.S.S.C.).;.c.B.z.V.j.c.M.m.2.x.f.f.i.k.i.C.d.n./.P.I.W./.!.~.k.4.oX X'.}.#XE.P.w.0.!.N.C.F.K.H.(.e.b.`.D.W.| 4.",
"a.7.8.L.k.@.F.S.T.M.v.J.{.+.m.T.e.M.c.M.N.D.@.l.8.w.z.d.e.G.a.s.^.Y.T.[.T.J.U.s.-..X#X&X).{.'.E.y.,.C.K.v.H.).Y.H.7.I.{.W.~.%.).",
"y.z.Y.*Xa.*.C.G.!.d.v.(.$X+.L.~.T.I.F.D.G.S.7.S.p.f.d.g.h.b.5.,./.].}.L.^.L.I.m.[ n.(.}.&X'.T.W.i.f.J.'.`.x.W.L._.3.U.&XY.G.#.J.",
"` 4.Z.A.y.{ %.,.0.#.>.t.B.8.,.-.i.u.9.y.m.y.O.v.s.h.t.y.u.g.s.$.y.a.d.p.c.g.i.N.X.X.r.1.t.w.e.:.X.1.u.0.w.| x.a.m.3.>.,.:.3.R #.",
"8.3.i.i.R.n.q.w.7.q.9.;.%.3.-.d.9.k.B.m.b.D.f.<.0.p.y.3.$.;.v.h.e.4.<.w.w.q.s.H.x.7.6.s.>.%.' ..*.` X.t.=.4.5.5.e.h.t.&.! -.k.u.",
"(.i.w.b.P.R.V.R.L.g.s./.[.S.Y.U.U.T.F.n.S.Z.L.L.W.R.T.~.|.J.Z.D.R.}.OX).{.J.K.j.5.n.I.J.#XH.~.@X$XW.XXXXOX9X7X,XrX^.e.-.6.l.Q.T.",
"_.>.] t.G.K.C._.oX!.Y.-XOXD.C.P.E.S.U.n.y.b.aXtXQ.n.(.XXL.S.`./.}.7XOXH.G.g.0.{ 0.*XXX$X:X4X,X-X$XK.I.L.XXA.A.T.oX^.z...z.R.N.g.",
"E.7.-.g.c.<.3.B.g.b.b.c.h.v.6.g.V.n.Z.A.,.-.U.J.a.z.V.J.^.(.OX4X>X7XXX!.A.x.7.X.7.c.<.7.f.A.~.W.L.A.q.j.B.W.K.~.Q.h.p.e.E.W.T.^.",
"OX5.{ S.c.h.y.e.l.u.a.u.h.s.d.4.e.p.u.Z.+.M.oXk.G.n.J.{.W.W.<X7XuX$X&XQ.Z.b.n.4.e.D.f.a.P.S.x.q.r.d.J.J.G.Y.~.`.Q._.v.t.}.P.U.!.",
"@Xa._ l.u.e.g.,.q.h.p.f.z.A.v.V.f.t.s.T.l.u.2X X|.S.J.@X].&X*X3X1X:X<X@XZ.T.j.q.2.C.Q.).&XW.K.E.n.D.XX XoX].`./.].!.Z.` !.[.P.V.",
"d.Z.3.u.<.7.*.-.%.*.<.7.,.1.>.$.} +.$.( l.R 2.i.8.5.| @.%.%.<.6.d.<.*.e.>.0.y.l.;.:.8.,.p.*.:.,.&.1.f.-.^ t.u.1.O.} k.#.` ] X.6.",
"x.m.^./. XI.4.k.x.u.k.l.d.v.B.$.4.N.F.`.C.N.l.G.x.4.7.j.4.} j.`.I.R ..x.F.{.T.n.Q.r.,.r.q.<.<.y.r.H.a./  .u.^.P.V.V.d.m.A.M.M.S.",
"z.r.v.T.L.C.o.K.H.n.G.S.J.Q.'.-.g.M.m.Z.S.E.P.D.=.d.L.V.G.R.L.Q.C...0.l.F.G.F.g.m.<.9.P.w.=.%.d.k.H.<.2.T.t.x.x.B.Z.l.k.c.V.b.A.",
"t.h.w.l.g.b.| V.V.m.V.j.M.V.T.o.=.m.N.K.D.C.F._.:.b.W.C.V.R.J.(.l.` *XT.z.S.W.!.V.4.f.^.v.<.,.r.P. Xf.:.z.v.n.S.v.I.S.z.Z.n.c.b.",
"(.N.Y.G.z.S.| M.E. X}.K._.]..X@.<.V.P.E./.Q.%X%Xt./.2X:X#XeXrX+Xs.#.+X`.@X}.}.(.@Xf.5.(.E.b.g.B.Z.XXZ.p./.H.R.oX/.#XP.L.oXW.|._.",
"].V.*XwXH.Q._ v.T..X.X).*X%X=X-.*.W.(.].OXOX}. X5. XpX3X5X5X3X4Xb.^ I.^.*XqX5X>X!.c.3.].!.S.m.~.].4XJ.6.}.).;X*XuX X`.XX&X9X9X*X",
"+.%.1.s.d.k.o.8.N.s.7.e.k.i.R.e.T e.y.u.=.&.&.y.9.e.U.z.h.f.y.p.m.| 9.r.i.i.y.p.y.u.O.4.4.@.=.>.6.e.y.O.1.0.7.,.1.a.3.i.7.<.;.4.",
"u.2.r.i.g.B.x.p.9.r.<.,.0.g.c.(.K.S.#.| N.n.p.A.@X_.W.B.i.c.N.;.W.{.~.!.a._ V.'.'.`.@XU.C.D.W.!.H.K.U.Z.z./.>.%.c.V.5.;.q.p.d.:.",
"`.g.S.L.R.`.U.L.'..X^.U.E.(.}.OX>X$XS.>.$X:X+X{.N.].=XoXE.D.z.m.Q.{.&XtXe.| >X-XR.R.}.(.T.{.<X>X(.Y.).oXQ. Xi.N.(.V.w.u.q.q.b.a.",
"@Xx.v.y.x.v.8.x.C.R.!./.).`. X'.)./.k.;.I.M.v.C.D.`.!.n.s.d.u.G.(.^.$X5Xy.@.K.2XL.P.P.#XF.!.Q.!.L.~._.|.E.~.:.f.v.b.7.0.f.s.d.0.",
"Q.6.y.5.6.a.g.b.)._.).oX&X#X'./.(.XXk.6.A.h.h.d.'.C.k.m.v.h.z.G.P.P.0X6Xe.8.C.(.J.I.^.E.A.c.~.'.Z.Q.T.'.W.S.*.!.%XR.M.C.g.r.b.c.",
"G.B.S.J.Q.E.[.,X;X;X$X#X X X!.+XXX XG.s.`.I.Y.Y./.E.T.P.K.~. XD.F.!.=X9Xi.O.L.F.U.XX%XK.M.s.T.^.Z.D.n.K.J.S.<.M.%X!.P.(.E.H.F.g.",
"T.u.5.B.M.c.F.s.N.S.C.k.7.4.4.g.w.>.=.o.g.a.>.r.q.t.0.<.;.0.p.:.<.u.,.m.r.E ,.1.O.,.*.:.X.$.#.-.<.%.#.=.=.s.1...i.d.6.3.u.i.<.[ ",
"b.z.r.l.*.[ 3.5.1.;.,.6.<.$.i.r.6.7.1.,.x.c.5.3.:.r.f.0.1.B.0.` { &.5.b.n.Z.p.O.c.e.i.u.g.z.z.w.b.f.g.q.=.0.j.x.8.2.e.j.t.w.h.g.",
"R.W.P.R.1.1.n.j.n.k.A.Y.c.=.~.!.H.P.I.E.%Xd.P.'.R.N.J.L.f.`.d.1.y.v.!..X!.*XL.z.L.U.|.).J.oX].z.v.T.Y.h.v.U.^.~.W./.Y.J.R.Q.E.W.",
"V.T.V.D.7.t.K.x.Z.A.F.J.y.>.G.H.I.G.K.I.J.%.J.%X[./.E.B.,.(.l.a.7.9.G.I.U.].N.1.B.k.C.D.(.}./.7.a.m.x.f.A.v.K.N.B.A.c.Q.S.D.M.Z.",
"s.I.U.M. .g.E.N.B.A.n.V.t.z.D.Y.x.C.n.I.W. .K.].+XXX>X[.).(.3.g.%.w.I.!.L.%Xk.7.W.f.p.S.C.k.R.w.s.V.H.D.z.p.V.l.Y.F.N.Q.h.a.v.I.",
"n.c.c.Z.[ q.H.g.K.A.c.A.w.Z.Q.H.).R.G.OX:X=.R.0X>X>X-X;X+X(.} l.).1X^.(.].4XU.e.@XY..X<X[.~.OXf.S.Q._.H.^.L.OX#XOX!.G.R.j.z.M.m.",
"c.A.f.V.%.=.N.j.c.z.i.n.f.s.U.h.v.h.d.g.N...>.b.6.h.p.p.L.B.[ i.A.k.k.b.V.'.E.o.H.'.E.Y.!.:XfXs.w.M.B.P.I.].`.}.[.Q.U.Q.C.S.H.G.",
"^ @.| s.p.' ] %.O.O.' :.f.O.=.>.-.=.o.} 9.q.#.>.7.:.} X.W #.-.O.%...^ ~ ( R q.5.-.%.-.#.-.1.r.c._ ' 8.3.+.*.5...:.o. .=.>.*.-.t.",
"i.d.m.n.C.R.P.m.Z.U.E.b.L.[.R.C.) c.A.Z.N.V.C.Q.b.f.y.U.-.m.(.l.I.+.g.R.`.E.B.H.Q.XXR.E.[.Y.Y.W.Z.S.S.h.2.h.d.t.y.u.y.q.p.r.9.d.",
"f.w.S.S.h.J.K.V.~.m.Y.H.B.R.I.I.R I.).Y.D.K.D.f.u.v.f.c.n.V.~.J.T.<.r.T./.m.v.G.). X[.[.}./.!.(._.{.].e.U.Y.H.Z.B./.oXF.c.l.l.z.",
"u.x.b.V.N.J.x.z.v.C.(.F.A.!.'.R.O.I.).K.b.v.V.Z.^.).(.oXR.!.~.k.Y.O.5.I.P.v.~.c.I.R.N.P.J.G.{.U.L.I.U.%.Z.G.A.v.Z.I.'.V.l.c.n.h.",
"x.S.b.p.N.U.t.s.N.A.E.!._.~./.Y.$.|.W.c.h.l.L.P.A..XW.Q.F.J.E.A.].5.k.G.W.T.Q.v.m.M.U./.!.H._.n.V.B.Y.@.B.G.G.F.M.G.).J.i.j.N.M.",
"B.V.I.).OX%X'.G.Y.U.N./.!._.Q.]. .~.1XU.(.U.!.^.{.[.[._.^.U.{.T.|.s.C.|. X/.+X'.-X0X-X3X(./.+XC.M.Y.T.{ C.W.].L.x.T.I.s.Z.Q.XXE.",
"<.:.4.0.s.k.D.a.;.t.&.$.9.4.,.;.] ..v.4.1.4.d.0.8.1.e.0.f.7.-.O.6.6.>.:.-.7.p.w.8.9.u.v.w.v.x.9.f.y.d.:.y.5.t.-.<.2.8.%.,.f.4.,.",
"5.9.1.#.<.&.2.w.9.e.u.v.n.>.5.&.,.<.2.d.-.;.&.0.4.t.q.7.j.c.X.8.d.7.3.e.,.c.k.:.! _ 6.4.;.q.x.y...4.t.8.| #.9.u.q.| +.>.O.<.u.e.",
"V.@X).&.4.~.`.(.~.U.L.$X9.a.~._.S.G.E.T.I.' g.z.M.I.F.m.n.D.o.Z.C.B.x.b.m.[.8.W 5.C.T.Y.T.G..X8.%.V.B.x.b.Q./.<Xy.^ b.t.l.P././.",
"m.Y.!.:.6.[.[.'.F.L.i.I.$.A.L.S.C.B.v.P.S.| W.S.V.S.W.H.d.i.( C.~.f.v.}.Y.!.5.5.%X<X+X_.E.I.[.7.2.j.k.x.U.U.F./.1.7.b.p.n.m.T.^.",
"{. X@X,.1./.[./.K.`.A.Q.1.A.I.}.Q.W.P.Y.{.%.!.J.Z.H.].W.N.v.@.!.{.XX~.}.).).w.A.|.`.#XXX/.^.(.b.s.U.E.J.K.J.'.`.&.V.G.F.H.V.a.V.",
"&X1X0Xi.g.^.`.).[.oX~.|.3.@X:X^.E.F.@X=X`.O.|.{.B.'.&XoX_.W.{ Z.'.<X'.XX@X&Xz.F.:X+X%X>X0X5X3Xn.j.[.P.U.(._.%X$X1.^.M.b.J.x.z.u.",
"d.l.sXB.2.S.W.|.`.@X&X;Xi.s.'.J.S.B.oXoXz.&.D.g.i.I.].N.+X/.! u.l.a.0.<.d.s.j.O.n.y.i.b.F.(.D.Z.2.W./.Y.L.!.XX^.=.C.L.J.A./.W.{.",
"2.o.e.C.@...&.&.1.*.o.9.<.` | ' @.>.o.%.7.X.%.,.&.&.] | { 6.;.....*.[ _ ] -.h.2.%.} $.$.^ U _ d.` @._ [ w.e.{ q.h.o.^ ` #.,.) 6.",
"p.j.Q._.T.`.(.v.d.n.z.y.Z.J.L.x.Z.c.t.t.B.I.x.D.I.P./.N.Y.K.B.Y.T._..Xv.e.E.L.F.U.U.Q.J.I.I.L.~.'.P.z.L.).0.3.Z.J.S.C.b.z.G.A.r.",
"&.m.4X^.}.{.].|.G.n.U.I.Q.W.'.`..Xt.8.F.K.W.P.!.W.E.L._.[.)._.!.m.Y.*X5.5.`.U._.XX{.|./.*X#X]._.'.!./.'.G.~ L.<X,XQ.^.OXR.G.|.S.",
"$.x.J.Q.[.Q.W.^.K.S.~.K.Z.(.`.K.Q.t.3.D.A.c.J.J.D.J.H.U.G.E.(.E.c.R.[.%.v.R.J.P.m.G.Q.H.(.Y.I.P.S.V.Q.T.N.+.U.H.D.e.c.N.l.g.n.a.",
"%.g.S.T.L./.%XXXW.J.W.).'.&XoX$X Xt.a.D.J.G.C.J.H.H.J.Y.|.[._.!.z.L..X6.U.B.c.Y.b.P.[.(.oX`.(.Y.E.K.J.(.Z.n.1Xd.w.<. .$.7.1.b./.",
"7.3.Q.+X<X=XE.M.P.J._.;X7XeX1XwXrX5.4.J.'./.m.T.U.}..XT.].+Xo.].[.Y.T.0.[.'.I.)._.^.[.}.|.L.U.E.F.~.).%Xv.i.#Xe.e.s.' ..5.<.Z.Y.",
">.R X.&.0.2.^ { :.$.5.e.i.b.n.k.Y.d.{ q.g.7.6.9.1.1.i.8.0.s.G ` %.0.>.{ 8.>.i.d.l.x.z.i.a.p.p.<.u.k.m.y.*.| t.3.-.2.&.O.[ { 2.1."
};
